<svg width="167" height="36" viewBox="0 0 167 36" fill="none" xmlns="http://www.w3.org/2000/svg">
<path d="M52.9309 12.1562C52.9309 16.9447 52.9309 22.3678 52.9309 27.1562C51.6626 27.1562 50.3943 27.1562 49.0684 27.1562C49.0684 21.2716 49.0684 14.637 49.0684 8.75238C52.7003 8.75238 56.4476 8.75238 60.0795 8.75238C60.0795 9.96392 60.0795 10.9447 60.0795 12.1562H52.9309Z" fill="black"/>
<path d="M61.002 27.2139H60.0796V14.9832H63.5962V21.1562L70.9178 14.9832H72.0132V27.2139H68.4965V20.8678L61.002 27.2139Z" fill="black"/>
<path d="M87.2329 14.9832V27.1562H83.6586V18.0985H78.9889V27.1562H75.3569V14.9832H87.2329Z" fill="black"/>
<path d="M101.934 21.8485H93.4591C93.5744 23.7523 95.0157 24.5023 96.7452 24.6177C97.264 24.6177 97.8405 24.6754 98.417 24.6177C99.5124 24.5023 100.665 24.2139 101.415 23.8677L101.818 26.4639C100.319 27.1562 98.6476 27.56 96.9758 27.56C92.7673 27.6177 89.8271 25.137 89.8271 21.0408C89.8848 16.7716 93.0555 14.81 96.3416 14.81C100.954 14.6947 102.914 17.6947 101.934 21.8485ZM93.5168 19.5408H98.9935C99.0512 17.9254 97.7252 17.4062 96.3993 17.4062C95.0157 17.4062 93.805 18.1562 93.5168 19.5408Z" fill="black"/>
<path d="M112.253 14.637C115.885 14.637 117.845 17.6947 117.845 20.9832C117.845 25.8293 113.348 28.7716 109.024 26.637V33.387H105.393V19.137C105.393 17.9832 105.565 17.2332 104.24 17.2909V14.9255C105.911 14.5793 108.333 14.5216 108.333 16.887C109.024 15.387 110.639 14.637 112.253 14.637ZM108.909 23.7524C111.446 25.2524 114.213 24.0986 114.213 21.0409C114.213 19.4255 113.348 17.8101 111.503 17.8101C109.889 17.8101 108.967 19.137 108.909 20.5793V23.7524Z" fill="black"/>
<path d="M127.069 24.6755L123.956 21.6178V27.1562C122.803 27.1562 121.65 27.1562 120.497 27.1562C120.497 23.2332 120.497 18.8485 120.497 15.0408H121.592L127.242 20.5793L132.949 14.9832H133.987C133.987 18.8485 133.987 23.1755 133.987 27.0985C132.834 27.0985 131.681 27.0985 130.528 27.0985V21.5601L127.3 24.6178H127.069V24.6755Z" fill="black"/>
<path d="M148.688 21.8485H140.213C140.329 23.7523 141.77 24.5023 143.499 24.6177C144.018 24.6177 144.595 24.6754 145.171 24.6177C146.267 24.5023 147.42 24.2139 148.169 23.8677L148.573 26.4639C147.074 27.1562 145.402 27.56 143.73 27.56C139.521 27.6177 136.581 25.137 136.581 21.0408C136.639 16.7716 139.81 14.81 143.096 14.81C147.708 14.6947 149.668 17.6947 148.688 21.8485ZM140.271 19.5408H145.748C145.805 17.9254 144.479 17.4062 143.153 17.4062C141.827 17.4062 140.559 18.1562 140.271 19.5408Z" fill="black"/>
<path d="M150.59 29.8101L150.475 24.4447H150.533H150.706C152.723 24.387 152.608 23.0024 152.896 21.0985L153.876 14.9832H163.216V24.4447H164.888L164.772 29.8101H161.659V27.1562H153.761V29.8101H150.59ZM159.872 17.9255H156.817L156.298 21.8485L156.125 22.7716C156.01 23.4062 155.779 24.0985 155.318 24.4447H159.814V17.9255H159.872Z" fill="black"/>
<path d="M90.4036 10.3678C90.8071 10.4832 91.0377 10.7716 91.0377 11.1755C91.0377 11.9832 90.2883 12.0409 89.6541 12.0409H88.2705C88.2705 11.0024 88.2705 9.96394 88.2705 8.92548H89.4812C90.0577 8.92548 90.8648 8.98317 90.8648 9.73317C90.8648 10.0216 90.7495 10.2524 90.4036 10.3678ZM89.5388 10.1947C89.8271 10.1947 90.173 10.137 90.173 9.84855C90.173 9.5024 89.8271 9.44471 89.5388 9.44471H88.9623V10.1947H89.5388ZM89.5965 11.5216C89.8847 11.5216 90.3459 11.5216 90.3459 11.1178C90.3459 10.7139 89.8847 10.7139 89.5388 10.7139H88.9623V11.5793H89.5965V11.5216Z" fill="#646363"/>
<path d="M94.1509 9.9639C94.0356 9.61775 93.6897 9.44467 93.2861 9.44467C92.8249 9.44467 92.3061 9.79083 92.3061 10.4254C92.3061 11.1177 92.8249 11.4639 93.2861 11.4639C93.632 11.4639 93.9779 11.2908 94.1509 10.887H94.8427C94.6697 11.6947 93.9779 12.0408 93.2861 12.0408C92.479 12.0408 91.6143 11.5216 91.6143 10.4254C91.6143 9.32929 92.479 8.81006 93.2861 8.81006C93.9779 8.81006 94.6697 9.15621 94.8427 9.9639H94.1509Z" fill="#646363"/>
<path d="M98.3594 10.5985H95.9957C95.9957 11.1754 96.4569 11.5216 97.0334 11.5216C97.437 11.5216 97.8405 11.4639 98.1864 11.3485L98.3017 11.8678C97.9558 12.0408 97.4946 12.1562 97.0911 12.1562C96.0534 12.1562 95.2463 11.5216 95.3039 10.4831C95.3039 9.44468 96.111 8.92545 96.9758 8.92545C98.0711 8.86776 98.59 9.56006 98.3594 10.5985ZM95.7651 7.88699C95.7651 7.65622 95.9381 7.54083 96.1687 7.54083C96.3993 7.54083 96.5722 7.65622 96.5722 7.88699C96.5722 8.11776 96.3993 8.23314 96.1687 8.23314C95.9381 8.23314 95.7651 8.06006 95.7651 7.88699ZM96.0534 10.137H97.8405C97.8405 9.67545 97.437 9.44468 97.0334 9.44468C96.5146 9.38699 96.111 9.61776 96.0534 10.137ZM97.264 7.88699C97.264 7.65622 97.437 7.54083 97.6676 7.54083C97.8982 7.54083 98.0711 7.65622 98.0711 7.88699C98.0711 8.11776 97.8982 8.23314 97.6676 8.23314C97.437 8.23314 97.264 8.06006 97.264 7.88699Z" fill="#646363"/>
<path d="M100.55 12.7332V11.4639H100.608C101.069 11.4639 101.127 11.0024 101.184 10.4832L101.415 8.92548H103.663V11.5216H104.067V12.7909H103.433V12.0986H101.184V12.7909H100.55V12.7332ZM102.971 9.5024H101.991L101.818 10.7139C101.761 11.1755 101.703 11.4062 101.53 11.5216H102.971V9.5024Z" fill="#646363"/>
<path d="M105.969 9.56009L105.796 10.9447C105.681 11.9255 105.45 12.2139 104.413 12.0409V11.5216C104.989 11.5793 105.047 11.3486 105.047 10.887L105.277 8.92548C106.084 8.92548 106.892 8.92548 107.699 8.92548V12.0409H107.007V9.56009H105.969V9.56009Z" fill="#646363"/>
<path d="M109.313 10.887C108.909 10.7716 108.621 10.3678 108.621 9.96394C108.621 9.38701 109.082 8.92548 109.774 8.92548C110.178 8.92548 110.985 8.92548 111.388 8.92548V12.0409C111.158 12.0409 110.927 12.0409 110.639 12.0409V11.0601H110.062L109.313 12.0409H108.563V11.9832L109.313 10.887ZM110.639 10.4832V9.5024C110.408 9.5024 110.178 9.5024 109.947 9.5024C109.601 9.5024 109.313 9.73317 109.313 10.0216C109.313 10.3101 109.544 10.5409 109.947 10.5409H110.639V10.4832Z" fill="#646363"/>
<path d="M113.81 9.09851C114.098 8.92543 114.559 8.86774 114.963 8.86774C115.597 8.86774 116.231 9.04081 116.231 9.73312C116.231 10.0216 116.058 10.31 115.712 10.3677C116.116 10.4831 116.404 10.7716 116.404 11.1754C116.404 11.8677 115.712 12.0985 115.02 12.0985C114.501 12.0985 113.983 11.9831 113.694 11.81L113.752 11.2331C113.983 11.4062 114.501 11.5216 114.963 11.5793C115.366 11.5793 115.712 11.4639 115.712 11.1177C115.712 10.7139 115.251 10.6562 114.905 10.6562C114.732 10.6562 114.617 10.6562 114.444 10.6562V10.1947C114.617 10.1947 114.732 10.1947 114.905 10.1947C115.193 10.1947 115.539 10.1947 115.539 9.79081C115.539 9.44466 115.193 9.38697 114.905 9.38697C114.617 9.38697 114.156 9.44466 113.925 9.61774L113.81 9.09851Z" fill="#646363"/>
<path d="M116.923 12.7332V11.4639H116.98C117.441 11.4639 117.499 11.0024 117.557 10.4832L117.787 8.92548H120.036V11.5216H120.439V12.7909H119.805V12.0986H117.557V12.7909H116.923V12.7332ZM119.344 9.5024H118.364L118.191 10.7139C118.133 11.1755 118.076 11.4062 117.903 11.5216H119.344V9.5024Z" fill="#646363"/>
<path d="M122.63 12.0985C121.765 12.0985 120.958 11.5793 120.958 10.4831C120.958 9.38697 121.765 8.86774 122.63 8.86774C123.495 8.86774 124.36 9.38697 124.36 10.4831C124.302 11.5793 123.437 12.0985 122.63 12.0985ZM122.63 11.4639C123.091 11.4639 123.61 11.1177 123.61 10.4831C123.61 9.79081 123.091 9.44466 122.63 9.50235C122.169 9.50235 121.708 9.84851 121.708 10.4831C121.65 11.1177 122.111 11.4639 122.63 11.4639Z" fill="#646363"/>
<path d="M126.839 8.81006C127.761 8.81006 128.28 9.56006 128.28 10.4254C128.28 11.4062 127.53 12.0985 126.666 12.0408C126.377 12.0408 126.147 11.9254 125.859 11.8101V13.6562H125.109V9.90621C125.109 9.56006 125.167 9.38698 124.763 9.38698V8.92544C125.282 8.81006 125.686 8.92544 125.686 9.44467C125.916 8.98314 126.377 8.81006 126.839 8.81006ZM125.859 11.2331C126.147 11.4062 126.435 11.5216 126.666 11.4639C127.127 11.4639 127.53 11.1178 127.53 10.4831C127.53 9.9639 127.242 9.50237 126.666 9.50237C126.147 9.50237 125.859 9.90621 125.859 10.3678V11.2331Z" fill="#646363"/>
<path d="M130.47 12.0985C129.606 12.0985 128.799 11.5793 128.799 10.4831C128.799 9.38697 129.606 8.86774 130.47 8.86774C131.335 8.86774 132.2 9.38697 132.2 10.4831C132.142 11.5793 131.335 12.0985 130.47 12.0985ZM130.47 11.4639C130.932 11.4639 131.45 11.1177 131.45 10.4831C131.45 9.79081 130.932 9.44466 130.47 9.50235C130.009 9.50235 129.548 9.84851 129.548 10.4831C129.49 11.1177 130.009 11.4639 130.47 11.4639Z" fill="#646363"/>
<path d="M135.083 10.3678C135.486 10.4832 135.717 10.7716 135.717 11.1755C135.717 11.9832 134.967 12.0409 134.333 12.0409H132.949C132.949 11.0024 132.949 9.96394 132.949 8.92548H134.16C134.737 8.92548 135.544 8.98317 135.544 9.73317C135.544 10.0216 135.428 10.2524 135.083 10.3678ZM134.16 10.1947C134.448 10.1947 134.794 10.137 134.794 9.84855C134.794 9.5024 134.448 9.44471 134.16 9.44471H133.584V10.1947H134.16ZM134.218 11.5216C134.506 11.5216 134.967 11.5216 134.967 11.1178C134.967 10.7139 134.506 10.7139 134.16 10.7139H133.584V11.5793H134.218V11.5216Z" fill="#646363"/>
<path d="M137.907 12.0985C137.042 12.0985 136.235 11.5793 136.235 10.4831C136.235 9.38697 137.042 8.86774 137.907 8.86774C138.772 8.86774 139.637 9.38697 139.637 10.4831C139.579 11.5793 138.772 12.0985 137.907 12.0985ZM137.907 11.4639C138.368 11.4639 138.887 11.1177 138.887 10.4831C138.887 9.79081 138.368 9.44466 137.907 9.50235C137.446 9.50235 136.985 9.84851 136.985 10.4831C136.927 11.1177 137.446 11.4639 137.907 11.4639Z" fill="#646363"/>
<path d="M140.559 12.0408H140.386V8.92543H141.078V10.7716L143.096 8.86774C143.153 8.86774 143.269 8.86774 143.326 8.86774C143.326 9.9062 143.326 10.9447 143.326 11.9831C143.096 11.9831 142.865 11.9831 142.635 11.9831V10.0793L140.559 12.0408ZM140.905 7.6562C140.963 8.23313 141.366 8.57928 141.943 8.57928C142.519 8.57928 142.923 8.23313 142.98 7.6562C142.865 7.6562 142.635 7.59851 142.519 7.59851C142.462 7.88697 142.231 8.00236 141.943 8.00236C141.655 8.00236 141.424 7.88697 141.366 7.59851L140.905 7.6562Z" fill="#646363"/>
<path d="M149.495 8.92548H150.129C150.187 9.61778 150.014 10.137 149.322 10.4255L150.302 11.9255V11.9832H149.553L148.688 10.5986C148.573 10.5986 148.457 10.6562 148.227 10.6562V11.9832H147.535V10.6562C147.304 10.6562 147.189 10.6562 147.074 10.5986L146.209 11.9832H145.459V11.9255L146.44 10.4255C145.805 10.137 145.632 9.56009 145.69 8.92548H146.382C146.324 9.61778 146.612 10.137 147.535 10.137V8.92548H148.227V10.137C149.207 10.137 149.495 9.61778 149.495 8.92548Z" fill="#646363"/>
<path d="M151.167 12.0408H150.994V8.92543H151.686V10.7716L153.703 8.86774C153.761 8.86774 153.876 8.86774 153.934 8.86774C153.934 9.9062 153.934 10.9447 153.934 11.9831C153.703 11.9831 153.473 11.9831 153.242 11.9831V10.0793L151.167 12.0408Z" fill="#646363"/>
<path d="M154.741 9.09851C155.029 8.92543 155.49 8.86774 155.894 8.86774C156.528 8.86774 157.162 9.04081 157.162 9.73312C157.162 10.0216 156.989 10.31 156.643 10.3677C157.047 10.4831 157.335 10.7716 157.335 11.1754C157.335 11.8677 156.643 12.0985 155.952 12.0985C155.433 12.0985 154.914 11.9831 154.626 11.81L154.683 11.2331C154.914 11.4062 155.433 11.5216 155.894 11.5793C156.298 11.5793 156.643 11.4639 156.643 11.1177C156.643 10.7139 156.182 10.6562 155.836 10.6562C155.663 10.6562 155.548 10.6562 155.375 10.6562V10.1947C155.548 10.1947 155.663 10.1947 155.836 10.1947C156.125 10.1947 156.471 10.1947 156.471 9.79081C156.471 9.44466 156.125 9.38697 155.836 9.38697C155.548 9.38697 155.087 9.44466 154.856 9.61774L154.741 9.09851Z" fill="#646363"/>
<path d="M161.025 8.92548V12.0409H160.333V10.7139H158.777V12.0409H158.085V8.92548H158.777V10.137H160.333V8.92548H161.025V8.92548Z" fill="#646363"/>
<path d="M162.178 12.0408H162.005V8.92543H162.697V10.7716L164.715 8.86774C164.772 8.86774 164.888 8.86774 164.945 8.86774C164.945 9.9062 164.945 10.9447 164.945 11.9831C164.715 11.9831 164.484 11.9831 164.254 11.9831V10.0793L162.178 12.0408Z" fill="#646363"/>
<path fill-rule="evenodd" clip-rule="evenodd" d="M9.17434 16.0216L13.0369 18.2139L16.8995 20.3485V24.7331V29.0601L13.0369 31.2524L9.17434 33.4447L5.31178 31.2524L1.44922 29.0601V24.7331V20.3485L5.31178 18.2139L9.17434 16.0216Z" fill="#F9D900"/>
<path fill-rule="evenodd" clip-rule="evenodd" d="M25.5469 16.0216L29.4095 18.2139L33.272 20.3485V24.7331V29.0601L29.4095 31.2524L25.5469 33.4447L21.6843 31.2524L17.8218 29.0601V24.7331V20.3485L21.6843 18.2139L25.5469 16.0216Z" fill="#95C11F"/>
<path fill-rule="evenodd" clip-rule="evenodd" d="M33.7334 2.17548L37.596 4.36778L41.4585 6.5024V10.887V15.2139L37.596 17.4062L33.7334 19.5986L29.8709 17.4062L26.0083 15.2139V10.887V6.5024L29.8709 4.36778L33.7334 2.17548Z" fill="#4A5DA7"/>
<path d="M12.9216 24.387C12.8639 24.0985 12.5757 23.9255 12.2874 23.9255C12.2298 23.9255 12.1721 23.9255 12.1145 23.9255L11.4227 24.0985C10.9615 24.2139 10.5003 24.2716 10.0391 24.3293C10.0967 23.7524 10.2697 23.2909 10.6732 22.8293C11.365 22.0216 11.2497 20.8101 10.4426 20.0601C9.63552 19.3678 8.36721 19.3678 7.61776 20.1178C6.81066 20.8678 6.81066 22.0793 7.50246 22.887C7.90601 23.3485 8.07896 23.8101 8.13661 24.387C7.67541 24.3293 7.21421 24.2716 6.75301 24.1562L6.06121 23.9832C6.00356 23.9832 5.94591 23.9832 5.88826 23.9832C5.60001 23.9832 5.31175 24.1562 5.2541 24.4447C5.19645 24.6178 5.2541 24.7909 5.31175 24.9639C5.42705 25.137 5.54236 25.1947 5.71531 25.2524L6.63771 25.4832C6.92596 25.5409 7.15656 25.5985 7.44481 25.6562V25.7716H7.32951C6.52241 25.7716 5.88826 26.4062 5.88826 27.2139V27.8485C5.88826 28.6562 6.75301 29.2909 7.50246 29.2909H10.7885C11.5956 29.2909 12.2298 28.6562 12.2298 27.8485V27.2139C12.2298 26.4062 11.5956 25.7716 10.7885 25.7716H10.6732V25.5409C10.9615 25.4832 11.1921 25.4255 11.4803 25.3678L12.3451 25.137C12.8063 25.0793 13.0369 24.7332 12.9216 24.387ZM7.90601 20.3485C8.54016 19.7139 9.57787 19.7139 10.212 20.2909C10.8462 20.8678 10.9615 21.8486 10.385 22.5409C9.92377 23.0601 9.69317 23.6947 9.63552 24.3293C9.46257 24.3293 9.23197 24.3293 9.05902 24.3293C8.88607 24.3293 8.65546 24.3293 8.48251 24.3293C8.48251 23.6947 8.25191 23.1178 7.79071 22.5985C7.27186 21.9639 7.27186 20.9832 7.90601 20.3485ZM10.7309 26.1755H10.8462C11.4803 26.1755 11.9415 26.637 11.9415 27.2716V27.9062C11.9415 28.4832 11.4227 29.0024 10.8462 29.0024H7.56011C6.98361 29.0024 6.29181 28.5409 6.29181 27.9062V27.2716C6.29181 26.6947 6.81066 26.1755 7.38716 26.1755H7.50246V26.4639H7.38716C6.92596 26.4639 6.58006 26.8101 6.58006 27.2139V27.8485C6.58006 28.2524 6.92596 28.5986 7.38716 28.5986H10.8462C11.3074 28.5986 11.6533 28.2524 11.6533 27.8485V27.2139C11.6533 26.8101 11.3074 26.4639 10.8462 26.4639H10.7309V26.1755V26.1755ZM10.7885 26.8101H10.9038C11.1344 26.8101 11.3074 26.9832 11.3074 27.2139V27.8485C11.3074 28.0793 11.1344 28.2524 10.9038 28.2524H7.44481C7.21421 28.2524 7.04126 28.0793 7.04126 27.8485V27.2139C7.04126 26.9832 7.21421 26.8101 7.44481 26.8101H7.56011C7.61776 27.0985 7.90601 27.387 8.25191 27.387H10.0391C10.385 27.387 10.6732 27.1562 10.7885 26.8101C10.7309 26.8101 10.7309 26.8101 10.7885 26.8101C10.7309 26.8101 10.7309 26.8101 10.7885 26.8101ZM10.385 26.637C10.385 26.8101 10.212 26.9832 10.0391 26.9832H8.25191C8.07896 26.9832 7.90601 26.8101 7.90601 26.637V25.5985C8.30956 25.6562 8.77077 25.6562 9.17432 25.6562C9.57787 25.6562 10.0391 25.6562 10.4426 25.5985V26.637H10.385ZM12.3451 24.8486L11.4803 25.0793C10.7309 25.2524 9.92377 25.3678 9.11667 25.3678C8.30956 25.3678 7.56011 25.2524 6.75301 25.0793L5.83061 24.8486C5.65766 24.7909 5.60001 24.6755 5.60001 24.5024C5.65766 24.387 5.77296 24.2716 5.88826 24.2716H5.94591L6.63771 24.4447C7.15656 24.5601 7.73306 24.6755 8.25191 24.7332C8.54016 24.7332 8.77077 24.7909 9.05902 24.7909C9.34727 24.7909 9.57787 24.7909 9.86612 24.7332C10.4426 24.6755 10.9615 24.6178 11.4803 24.4447L12.1721 24.2716H12.2298C12.3451 24.2716 12.4604 24.387 12.518 24.5024C12.6333 24.6178 12.518 24.7909 12.3451 24.8486Z" fill="white"/>
<path d="M9.40488 20.5793C9.52019 20.5793 9.69314 20.6947 9.80844 20.8101C9.92374 20.9255 9.98139 21.0986 10.039 21.1562C10.039 21.2139 10.1543 21.2716 10.212 21.2716H10.2696C10.3849 21.2139 10.4426 21.1562 10.3849 21.0409C10.3273 20.8678 10.212 20.6947 10.039 20.5216C9.80844 20.3486 9.63549 20.2332 9.46254 20.1755C9.34723 20.1755 9.28958 20.2332 9.23193 20.2909C9.23193 20.4639 9.28958 20.5793 9.40488 20.5793Z" fill="white"/>
<path d="M35.3476 10.7139C34.9441 10.0793 34.2523 9.67548 33.5605 9.67548C32.811 9.67548 32.1192 10.0793 31.7733 10.7139L30.9086 12.0986C30.7356 12.387 30.678 12.6755 30.678 12.9639C30.678 13.2524 30.7933 13.5409 31.0239 13.8293C31.1968 14.0601 31.4851 14.2332 31.7733 14.2909C32.0616 14.3486 32.4075 14.3486 32.6957 14.1755C33.2722 13.9447 33.9064 13.9447 34.4829 14.1755C34.6558 14.2332 34.8864 14.2909 35.0594 14.2909C35.1747 14.2909 35.29 14.2909 35.4053 14.2332C35.6935 14.1755 35.9818 14.0024 36.1547 13.7716C36.3277 13.5409 36.443 13.2524 36.5006 12.9062C36.5006 12.6178 36.443 12.2716 36.27 12.0409L35.3476 10.7139ZM35.8665 13.5986C35.6935 13.7716 35.5206 13.887 35.29 13.9447C35.0594 14.0024 34.8288 14.0024 34.6558 13.887C33.964 13.5986 33.2146 13.5986 32.5228 13.887C32.2922 14.0024 32.0616 14.0024 31.8886 13.9447C31.658 13.887 31.4851 13.7716 31.3121 13.5986C31.1392 13.4255 31.0815 13.1947 31.0815 12.9639C31.0815 12.7332 31.1392 12.5024 31.2545 12.2716L32.1192 10.887C32.4651 10.3678 32.984 10.0216 33.6181 10.0216C34.2523 10.0216 34.7711 10.3101 35.117 10.887L35.9818 12.2716C36.0971 12.4447 36.1547 12.6755 36.1547 12.9639C36.0971 13.1947 35.9818 13.4255 35.8665 13.5986Z" fill="white"/>
<path d="M31.485 9.84857C31.6003 9.56011 31.6003 9.27165 31.485 8.98319C31.3697 8.69472 31.1968 8.46396 30.9085 8.29088C30.6203 8.1178 30.332 8.1178 30.0438 8.23319C29.4673 8.46396 29.2367 9.15626 29.4673 9.79088C29.6402 10.2524 30.1014 10.5986 30.5626 10.5986C30.6779 10.5986 30.7932 10.5986 30.9085 10.5409C31.1968 10.4255 31.4274 10.1947 31.485 9.84857ZM30.7932 10.1947C30.4473 10.3101 29.9861 10.0793 29.8132 9.67549C29.6402 9.21396 29.8132 8.75242 30.1591 8.57934C30.2167 8.57934 30.332 8.52165 30.3897 8.52165C30.505 8.52165 30.6203 8.57934 30.7356 8.63703C30.9085 8.75242 31.0815 8.92549 31.1391 9.15626C31.1968 9.38703 31.2544 9.6178 31.1391 9.79088C31.0815 9.96395 30.9662 10.137 30.7932 10.1947Z" fill="white"/>
<path d="M32.8686 9.27164C33.5604 9.27164 34.137 8.63702 34.137 7.82933C34.137 7.02164 33.5604 6.38702 32.8686 6.38702C32.1768 6.38702 31.6003 7.02164 31.6003 7.82933C31.6003 8.63702 32.1768 9.27164 32.8686 9.27164ZM32.8686 6.73318C33.3875 6.73318 33.791 7.25241 33.791 7.82933C33.791 8.40625 33.3875 8.92549 32.8686 8.92549C32.3498 8.92549 31.9462 8.40625 31.9462 7.82933C31.9462 7.25241 32.3498 6.73318 32.8686 6.73318Z" fill="white"/>
<path d="M35.2323 9.67547C35.3476 9.73316 35.4629 9.73316 35.5782 9.73316C36.097 9.73316 36.6159 9.32932 36.7888 8.75239C36.9041 8.40624 36.9041 8.06009 36.7888 7.77162C36.6735 7.42547 36.3853 7.1947 36.097 7.07932C35.7511 6.96393 35.4052 7.02162 35.117 7.1947C34.8287 7.36778 34.5981 7.65624 34.4828 8.00239C34.2522 8.75239 34.5981 9.50239 35.2323 9.67547ZM34.8864 8.11778C34.944 7.88701 35.117 7.65624 35.3476 7.54086C35.4629 7.48316 35.6358 7.42547 35.7511 7.42547C35.8088 7.42547 35.9241 7.42547 35.9817 7.48316C36.2123 7.54086 36.3853 7.71393 36.4429 7.9447C36.5582 8.17547 36.5582 8.46393 36.4429 8.6947C36.27 9.21393 35.7511 9.50239 35.3476 9.38701C34.8864 9.21393 34.7134 8.63701 34.8864 8.11778Z" fill="white"/>
<path d="M37.9418 9.73316C37.7112 9.56009 37.4229 9.50239 37.1923 9.56009C36.8464 9.61778 36.5582 9.79086 36.3276 10.0793C35.924 10.6562 35.9817 11.3486 36.5005 11.7524C36.6735 11.8678 36.9041 11.9832 37.1347 11.9832C37.5382 11.9832 37.8841 11.8101 38.1147 11.4639C38.5183 10.8293 38.4606 10.0793 37.9418 9.73316ZM37.8265 11.1755C37.5382 11.5216 37.0194 11.6947 36.7311 11.4062C36.3852 11.1755 36.3852 10.6562 36.6735 10.2524C36.8464 10.0216 37.0194 9.90624 37.25 9.84855C37.3076 9.84855 37.3076 9.84855 37.3653 9.84855C37.4806 9.84855 37.6535 9.90624 37.7688 9.96393C38.0571 10.2524 38.1147 10.7716 37.8265 11.1755Z" fill="white"/>
<path d="M35.463 12.5024C35.3477 12.5601 35.2901 12.6178 35.3477 12.7332C35.3477 12.7332 35.4054 12.9063 35.2901 13.0793C35.1748 13.1947 35.0595 13.2524 35.0018 13.2524C34.8865 13.2524 34.8289 13.3678 34.8289 13.4832C34.8289 13.5986 34.9442 13.6563 35.0018 13.6563C35.0595 13.6563 35.3477 13.5986 35.5207 13.3101C35.6936 13.0216 35.636 12.7332 35.5783 12.6755C35.636 12.5024 35.5207 12.4447 35.463 12.5024Z" fill="white"/>
<path fill-rule="evenodd" clip-rule="evenodd" d="M17.3606 2.17548L21.2232 4.36778L25.0857 6.5024V10.887V15.2139L21.2232 17.4062L17.3606 19.5986L13.4981 17.4062L9.6355 15.2139V10.887V6.5024L13.4981 4.36778L17.3606 2.17548Z" fill="#E52322"/>
<path d="M19.6667 4.887C19.609 4.65623 19.3784 4.48315 19.0902 4.48315C19.0325 4.48315 18.9749 4.48315 18.9172 4.48315L18.5713 4.54085C18.2831 4.59854 18.0525 4.65623 17.7642 4.65623C17.6489 4.65623 17.5336 4.65623 17.3606 4.65623C17.2453 4.65623 17.13 4.65623 16.9571 4.65623C16.6688 4.65623 16.4382 4.59854 16.15 4.54085L15.8041 4.48315C15.7464 4.48315 15.6888 4.48315 15.6311 4.48315C15.3429 4.48315 15.1123 4.65623 15.0546 4.887C14.997 5.06008 15.0546 5.17546 15.1123 5.34854C15.1699 5.46392 15.3429 5.57931 15.5158 5.637L15.6311 5.69469C15.6311 6.79085 15.5735 7.65623 15.6311 8.34854C15.7464 10.0216 15.8041 10.4832 15.8617 10.7139C15.977 11.4639 16.0923 11.8678 16.2076 12.2716C16.2653 12.5024 16.3229 12.7332 16.3806 12.9639C16.4382 13.0793 16.4382 13.2524 16.4959 13.3678C16.6688 14.1178 16.8994 14.9255 16.8418 16.5985C16.7841 16.5985 16.7265 16.6562 16.7265 16.7716L16.6112 17.5216C16.6112 17.5793 16.6112 17.637 16.6688 17.637C16.7265 17.6947 16.7265 17.6947 16.7841 17.6947H17.8219C17.8795 17.6947 17.9372 17.6947 17.9372 17.637C17.9948 17.5793 17.9948 17.5216 17.9948 17.5216L17.9372 16.7716C17.9372 16.7139 17.8795 16.6562 17.8219 16.5985C17.7642 14.9255 17.9948 14.1178 18.1678 13.3678C18.2254 13.2524 18.2254 13.0793 18.2831 12.9639C18.3407 12.7332 18.3984 12.5024 18.456 12.2716C18.5713 11.8678 18.6866 11.4062 18.8019 10.7139C18.8596 10.4832 18.9172 10.0216 19.0325 8.34854C19.0902 7.65623 19.0325 6.79085 19.0325 5.69469L19.1478 5.637C19.3208 5.57931 19.4361 5.52162 19.5514 5.34854C19.7243 5.23315 19.7243 5.06008 19.6667 4.887ZM16.2653 9.79085H18.629C18.629 9.84854 18.629 9.96392 18.629 10.0216H16.3229C16.2653 10.0216 16.2653 9.84854 16.2653 9.79085ZM18.6866 5.75238C18.6866 6.79085 18.7443 7.59854 18.6866 8.29085C18.6866 8.81008 18.629 9.04085 18.629 9.387H16.2076C16.2076 9.09854 16.15 8.81008 16.15 8.29085C16.0923 7.59854 16.15 6.79085 16.15 5.75238C16.5535 5.86777 17.0147 5.86777 17.4183 5.86777C17.8219 5.92546 18.2831 5.86777 18.6866 5.75238ZM17.303 15.2716C17.3606 15.2716 17.3606 15.2716 17.4183 15.2716H17.4759C17.4759 15.6755 17.4183 16.0793 17.4183 16.5985H17.303C17.3606 16.0793 17.3606 15.6755 17.303 15.2716ZM17.5336 14.8101C17.476 14.8101 17.4759 14.8678 17.4183 14.8678C17.3606 14.8678 17.303 14.8678 17.303 14.8678C17.2453 14.5216 17.1877 14.2332 17.1877 14.0024C17.303 14.0024 17.3606 14.0601 17.4759 14.0601C17.5913 14.0601 17.6489 14.0601 17.7066 14.0024C17.6489 14.1755 17.5913 14.4639 17.5336 14.8101ZM17.0724 17.3485L17.13 16.9447H17.6489L17.7066 17.3485H17.0724ZM18.1101 12.1562C18.0525 12.387 17.9948 12.6178 17.9372 12.9062C17.8795 13.0216 17.8795 13.1947 17.8219 13.3101C17.8219 13.3678 17.8219 13.4255 17.7642 13.4255C17.7066 13.4832 17.5336 13.5408 17.4183 13.5408C17.2453 13.5408 17.0724 13.4832 17.0147 13.4255C17.0147 13.3678 17.0147 13.3101 16.9571 13.3101C16.8994 13.1947 16.8994 13.0216 16.8418 12.9062C16.7841 12.6178 16.7265 12.387 16.6688 12.1562C16.5535 11.7524 16.4382 11.3485 16.3229 10.6562C16.3229 10.5985 16.3229 10.5408 16.3229 10.4832H18.5137C18.5137 10.5408 18.5137 10.5985 18.5137 10.6562C18.3407 11.3485 18.2254 11.7524 18.1101 12.1562ZM19.1478 5.23315L18.6866 5.34854C18.2831 5.46392 17.8219 5.52162 17.4183 5.52162C17.0147 5.52162 16.5535 5.46392 16.15 5.34854L15.6888 5.23315C15.6311 5.23315 15.5735 5.11777 15.5735 5.06008C15.5735 5.00239 15.6311 4.94469 15.7464 4.94469C15.7464 4.94469 15.7464 4.94469 15.8041 4.94469L16.0923 5.00238C16.3806 5.06008 16.6688 5.11777 16.9571 5.11777C17.0724 5.11777 17.2453 5.11777 17.3606 5.11777C17.4759 5.11777 17.6489 5.11777 17.7642 5.11777C18.0525 5.11777 18.3407 5.06008 18.629 5.00238L18.9749 4.94469C18.9749 4.94469 18.9749 4.94469 19.0325 4.94469C19.0902 4.94469 19.1478 5.00239 19.2055 5.06008C19.2631 5.11777 19.2055 5.17546 19.1478 5.23315Z" fill="white"/>
<path d="M23.7022 27.387C23.6446 27.387 23.5293 27.387 23.4716 27.3293C23.414 27.2716 23.3563 27.2139 23.3563 27.1562C23.2987 27.0408 23.3563 26.9255 23.3563 26.8678C23.414 26.8101 23.414 26.7524 23.4716 26.6947C23.5293 26.637 23.5293 26.637 23.5293 26.5793C23.5293 26.5793 23.5293 26.4639 23.5293 26.4062C23.5293 26.3485 23.5293 26.3485 23.4716 26.2908C23.414 26.2331 23.414 26.2331 23.3563 26.1755C23.3563 26.1755 23.2987 26.1178 23.241 26.0601C23.1834 26.0024 23.1257 25.9447 23.1257 25.8293C23.1257 25.7139 23.1834 25.5985 23.241 25.5408C23.3563 25.4255 23.4716 25.4831 23.5869 25.4831C23.8752 25.4831 23.9328 25.4831 23.9328 25.4831C23.9905 25.4831 24.1058 25.4831 24.1058 25.4255H24.1634C24.1634 25.4255 24.2211 25.3678 24.2787 25.3678C24.394 25.3101 24.5093 25.2524 24.567 25.2524C24.6246 25.2524 24.7976 25.1947 24.9705 25.3101C24.9705 25.3101 25.1435 25.4255 25.2011 25.5985C25.2011 25.6562 25.2011 25.7139 25.2011 25.8293H25.3164C25.3164 25.8293 25.3164 25.8293 25.3164 25.7716C25.3164 25.6562 25.4317 25.5408 25.4317 25.4831C25.4894 25.4255 25.547 25.3101 25.72 25.2524C25.8353 25.1947 26.0082 25.1947 26.1235 25.2524C26.2388 25.3101 26.3541 25.4255 26.3541 25.5408C26.4118 25.6562 26.4118 25.7139 26.4118 25.8293C26.4118 25.8293 26.4118 25.8293 26.4118 25.887H26.4694C26.7 25.887 26.8153 25.887 26.8153 25.887C26.873 25.887 26.9883 25.9447 27.1036 26.0024C27.1612 26.0601 27.2765 26.1178 27.3342 26.2908C27.3918 26.4062 27.3918 26.637 27.2765 26.8101C27.2189 26.8678 27.1036 26.9255 27.0459 26.9255C26.8153 26.9831 26.6424 26.9831 26.6424 26.9831C26.4118 26.9831 26.3541 26.9831 26.1812 26.9831C26.0082 26.9831 25.8929 26.9831 25.8353 26.9831C25.7776 26.9831 25.6623 26.9255 25.4894 26.8678L25.4317 26.8101C25.3164 26.7524 25.2588 26.7524 25.2588 26.7524H25.2011C25.2011 26.8101 25.1435 26.9255 25.0858 26.9831C25.0282 27.0408 24.9705 27.0985 24.8552 27.1562C24.7399 27.2139 24.6823 27.2139 24.567 27.2139H24.394C24.2787 27.2139 24.2211 27.2139 24.1058 27.2139H23.9905C23.9328 27.2139 23.8752 27.2139 23.8175 27.2139H23.7599C23.8175 27.387 23.7599 27.387 23.7022 27.387ZM23.5869 25.9447C23.6446 25.9447 23.6446 26.0024 23.5869 25.9447C23.6446 26.0024 23.6446 26.0601 23.7022 26.0601L23.7599 26.1178C23.8175 26.2331 23.8175 26.2908 23.8752 26.3485C23.9328 26.4639 23.8752 26.5793 23.8752 26.637C23.8752 26.6947 23.8752 26.8101 23.8175 26.8678C23.8175 26.9255 23.7599 26.9255 23.7599 26.9255C23.7599 26.9255 23.7599 26.9255 23.8175 26.9255H23.8752C23.9328 26.9255 23.9905 26.9255 24.0481 26.9255H24.1634C24.2787 26.9255 24.394 26.9255 24.5093 26.9255H24.6823C24.7976 26.9255 24.7976 26.9255 24.7976 26.9255C24.8552 26.9255 24.8552 26.8678 24.8552 26.8678C24.8552 26.8678 24.8552 26.8101 24.9129 26.8101C24.9129 26.7524 24.9705 26.637 25.0282 26.5793C25.1435 26.5216 25.2588 26.4639 25.3164 26.4639C25.4317 26.4639 25.547 26.4639 25.72 26.5793L25.7776 26.637C25.8929 26.6947 26.0082 26.7524 26.0082 26.7524C26.0659 26.7524 26.1235 26.7524 26.2965 26.7524C26.4694 26.7524 26.5271 26.7524 26.7577 26.7524C26.7577 26.7524 26.9306 26.7524 27.1036 26.6947C27.1036 26.6947 27.1036 26.6947 27.1612 26.6947C27.1612 26.6947 27.1612 26.637 27.1036 26.637C27.1036 26.5793 27.0459 26.5793 27.0459 26.5793C26.9883 26.5216 26.9306 26.5216 26.873 26.5216C26.873 26.5216 26.8153 26.5216 26.5847 26.5216H26.5271C26.3541 26.5216 26.2388 26.5216 26.1812 26.4062C26.1235 26.3485 26.1235 26.2331 26.1235 26.1755C26.1235 26.1755 26.1235 26.1178 26.1235 26.0601C26.1235 26.0024 26.1235 25.9447 26.1235 25.9447C26.1235 25.9447 26.1235 25.887 26.0659 25.887C26.0082 25.887 26.0082 25.887 25.9506 25.887C25.8929 25.887 25.8929 25.9447 25.8353 25.9447C25.8353 25.9447 25.7776 26.0024 25.7776 26.0601C25.7776 26.1178 25.7776 26.1178 25.7776 26.1178V26.1755C25.7776 26.2331 25.7776 26.3485 25.72 26.4062C25.6047 26.4639 25.547 26.4639 25.4894 26.4639H25.3741C25.3741 26.4639 25.3164 26.4639 25.2588 26.4639H25.0858H25.0282L24.9129 26.4062C24.7976 26.3485 24.7976 26.1755 24.7976 26.0601C24.7976 25.9447 24.7976 25.9447 24.7976 25.887C24.7976 25.887 24.7976 25.887 24.7399 25.8293C24.7399 25.8293 24.6823 25.8293 24.6246 25.8293C24.6246 25.8293 24.5093 25.887 24.4517 25.887C24.394 25.887 24.394 25.9447 24.3364 25.9447C24.2787 25.9447 24.2787 26.0024 24.2211 26.0024C24.1634 26.0024 24.0481 26.0601 23.9328 26.0601C23.9328 26.0024 23.8752 26.0024 23.5869 25.9447Z" fill="white"/>
<path d="M26.9308 25.3678C26.7578 25.3678 26.6425 25.3678 26.6425 25.3678C26.4119 25.3678 26.3543 25.3101 26.1813 25.3101C26.0084 25.3101 25.8931 25.2524 25.8354 25.2524C25.7778 25.1947 25.6625 25.1947 25.5472 25.0793L25.4895 25.0216C25.3742 24.9639 25.3742 24.9639 25.3166 24.9639H25.2589C25.2589 25.0216 25.2013 25.0793 25.1436 25.1947C25.086 25.2524 24.9707 25.3101 24.8554 25.3678C24.7401 25.4255 24.6824 25.3678 24.5671 25.3678H24.3941C24.2788 25.3678 24.2212 25.3678 24.1059 25.3101H23.9906C23.9329 25.3101 23.8753 25.3101 23.8753 25.3101H23.8176C23.7023 25.3101 23.587 25.3101 23.4717 25.1947C23.4141 25.137 23.3564 25.0793 23.3564 25.0216C23.3564 24.9062 23.4141 24.7908 23.4141 24.7908C23.4717 24.7331 23.5294 24.6755 23.5294 24.6755C23.587 24.6178 23.587 24.6178 23.587 24.5601C23.587 24.5601 23.587 24.5024 23.587 24.387C23.587 24.3293 23.587 24.3293 23.587 24.2716C23.587 24.2139 23.5294 24.2139 23.5294 24.1562C23.5294 24.1562 23.4717 24.0985 23.4717 24.0408C23.4141 23.9255 23.4141 23.8678 23.4141 23.8101C23.4141 23.6947 23.4717 23.5793 23.587 23.5793C23.7023 23.5216 23.8176 23.5216 23.9329 23.5793C24.2212 23.637 24.2212 23.637 24.2788 23.637C24.3365 23.637 24.4518 23.637 24.4518 23.637H24.5094C24.5094 23.637 24.5671 23.637 24.6247 23.5793C24.7401 23.5216 24.8554 23.5216 24.913 23.5216C24.9707 23.5216 25.1436 23.5216 25.2589 23.637C25.2589 23.637 25.3742 23.7524 25.4319 23.9255C25.4319 23.9831 25.4319 24.0408 25.3742 24.1562L25.4895 24.2139C25.4895 24.2139 25.4895 24.2139 25.4895 24.1562C25.5472 24.0408 25.6048 23.9255 25.6625 23.9255C25.7201 23.8678 25.8354 23.8101 26.0084 23.7524C26.1813 23.7524 26.2966 23.7524 26.4119 23.8678C26.5272 23.9255 26.5849 24.0408 26.6425 24.1562C26.6425 24.2716 26.6425 24.3293 26.6425 24.4447C26.6425 24.4447 26.6425 24.4447 26.6425 24.5024H26.7002C26.9308 24.5601 26.9884 24.5601 27.0461 24.5601C27.1037 24.5601 27.219 24.6178 27.3343 24.7331C27.392 24.7908 27.4496 24.8485 27.5073 25.0216C27.5649 25.1947 27.5073 25.3678 27.3343 25.4831C27.219 25.5408 27.1614 25.5408 27.1037 25.5408C26.9884 25.3678 26.9308 25.3678 26.9308 25.3678ZM25.2589 24.5024C25.3166 24.5024 25.3166 24.5024 25.2589 24.5024C25.4319 24.5024 25.5472 24.5601 25.6625 24.6755L25.7201 24.7331C25.8354 24.7908 25.8931 24.8485 25.9507 24.8485C26.0084 24.8485 26.066 24.8485 26.1813 24.9062C26.2966 24.9062 26.4119 24.9639 26.6425 24.9639C26.6425 24.9639 26.8155 24.9639 26.9884 24.9639C26.9884 24.9639 26.9884 24.9639 27.0461 24.9639V24.9062C27.0461 24.8485 26.9884 24.8485 26.9884 24.7908C26.9308 24.7331 26.9308 24.7331 26.8731 24.7331C26.8731 24.7331 26.8155 24.7331 26.5849 24.6755H26.5272C26.3543 24.6755 26.239 24.6178 26.1813 24.5024C26.1237 24.387 26.1237 24.3293 26.1813 24.2716C26.1813 24.2716 26.1813 24.2139 26.1813 24.1562C26.1813 24.0985 26.1813 24.0408 26.1813 24.0408C26.1813 24.0408 26.1813 23.9831 26.1237 23.9831C26.066 23.9831 26.066 23.9831 26.0084 23.9831C25.9507 23.9831 25.9507 24.0408 25.8931 24.0408L25.8354 24.0985C25.8354 24.1562 25.8354 24.1562 25.8354 24.1562V24.2139C25.8354 24.2716 25.8354 24.387 25.7201 24.4447C25.6048 24.5024 25.5472 24.4447 25.4895 24.4447L25.3742 24.387H25.3166L25.2013 24.3293H25.1436L25.086 24.2716C24.9707 24.1562 25.0283 24.0408 25.0283 23.9255C25.0283 23.8101 25.086 23.8101 25.086 23.7524C25.086 23.7524 25.086 23.7524 25.086 23.6947C25.086 23.6947 25.0283 23.6947 24.9707 23.6947C24.913 23.6947 24.8554 23.6947 24.7977 23.7524L24.6824 23.8101C24.6247 23.8101 24.6248 23.8101 24.5671 23.8101C24.5095 23.8101 24.3942 23.8101 24.2788 23.8101C24.2212 23.8101 24.1635 23.8101 23.9329 23.7524C23.9329 23.8101 23.9906 23.8101 23.9906 23.8101L24.0482 23.8678C24.1059 23.9831 24.1059 24.0408 24.1059 24.0985C24.1059 24.2139 24.1059 24.3293 24.0482 24.387C24.0482 24.4447 23.9906 24.5024 23.9329 24.6178L23.8753 24.6755H23.9329C23.9906 24.6755 24.0482 24.6755 24.1059 24.6755H24.2212C24.3365 24.6755 24.4518 24.7331 24.5671 24.7331H24.7401C24.8554 24.7331 24.8554 24.7331 24.8554 24.7331C24.8554 24.7331 24.913 24.7331 24.9707 24.6755C24.9707 24.6755 24.9707 24.6178 25.0283 24.6178C25.0283 24.5601 25.086 24.5024 25.2013 24.4447C25.1436 24.5024 25.2013 24.5024 25.2589 24.5024Z" fill="white"/>
<path d="M27.1035 23.5794H27.0459C26.8729 23.5794 26.7 23.5217 26.6423 23.5217C26.4694 23.464 26.3541 23.464 26.2388 23.464C26.0658 23.4063 26.0082 23.4063 25.8929 23.3486C25.8352 23.2909 25.7776 23.2332 25.6046 23.1755L25.547 23.1178C25.4317 23.0601 25.4317 23.0024 25.4317 23.0024C25.374 23.0601 25.3164 23.1178 25.2587 23.1755C25.2011 23.2332 25.0858 23.2909 24.9705 23.2909C24.8552 23.2909 24.7975 23.2909 24.6822 23.2332L24.6246 23.1755C24.5093 23.1755 24.4516 23.1178 24.3363 23.1178H24.221C24.1634 23.1178 24.1634 23.1178 24.1057 23.0601H24.0481C23.9328 23.0601 23.8175 23.0024 23.7598 22.8871C23.7022 22.8294 23.7022 22.7717 23.6445 22.714C23.6445 22.5986 23.7022 22.4832 23.7022 22.4832C23.7598 22.4255 23.8175 22.3678 23.8175 22.3678C23.8751 22.3678 23.8751 22.3101 23.8751 22.3101C23.8751 22.3101 23.8751 22.2524 23.9328 22.1947C23.9328 22.1371 23.9328 22.1371 23.9328 22.0794C23.9328 22.0217 23.8751 22.0217 23.8751 21.964C23.8751 21.964 23.8175 21.9063 23.8175 21.8486C23.7598 21.7332 23.7598 21.6755 23.8175 21.6178C23.8175 21.5024 23.9328 21.4447 23.9904 21.3871C24.1057 21.3294 24.221 21.3871 24.3363 21.4447C24.5669 21.5601 24.6246 21.5601 24.6246 21.5601C24.6822 21.5601 24.7399 21.5601 24.7975 21.5601H24.8552C24.8552 21.5601 24.9128 21.5601 24.9705 21.5601C25.0858 21.5601 25.2011 21.5024 25.2587 21.5601C25.3164 21.5601 25.4893 21.6178 25.6046 21.7332C25.6046 21.7909 25.7199 21.9063 25.7199 22.0217C25.7199 22.0794 25.7199 22.1371 25.6623 22.1947H25.7199C25.7776 22.0794 25.8929 22.0217 25.8929 21.964C25.9505 21.9063 26.0658 21.8486 26.2388 21.8486C26.3541 21.8486 26.527 21.9063 26.5847 21.964C26.7 22.0217 26.7576 22.1371 26.7576 22.2524C26.7576 22.3678 26.7576 22.4255 26.7 22.5409H26.7576C26.9882 22.5986 27.0459 22.6563 27.1035 22.6563C27.1612 22.714 27.2765 22.714 27.3341 22.8294C27.3918 22.8871 27.4494 22.9447 27.4494 23.1178C27.4494 23.2332 27.3918 23.464 27.2188 23.5217C27.2188 23.5794 27.1612 23.5794 27.1035 23.5794ZM25.4317 22.5986C25.4893 22.5986 25.4893 22.5986 25.547 22.5986C25.6623 22.5986 25.7776 22.714 25.8929 22.7717L25.9505 22.8294C26.0658 22.8871 26.1235 22.9447 26.1235 23.0024C26.1811 23.0024 26.2388 23.0601 26.3541 23.0601C26.4694 23.1178 26.5847 23.1178 26.7576 23.1755C26.7576 23.1755 26.9306 23.2332 27.0459 23.2332C27.0459 23.2332 27.0459 23.2332 27.0459 23.1755C27.0459 23.1178 27.0459 23.1178 26.9882 23.1178C26.9306 23.0601 26.9306 23.0601 26.8729 23.0601C26.8729 23.0601 26.8153 23.0601 26.6423 23.0024H26.5847C26.4117 22.9447 26.3541 22.9447 26.2964 22.8294C26.2388 22.714 26.2964 22.6563 26.2964 22.5986C26.2964 22.5986 26.2964 22.5409 26.2964 22.4832C26.2964 22.4255 26.2964 22.3678 26.2964 22.3678C26.2964 22.3678 26.2964 22.3101 26.2388 22.3101C26.2388 22.3101 26.1811 22.2524 26.1811 22.3101C26.1235 22.3101 26.1235 22.3101 26.0658 22.3678L26.0082 22.4255V22.4832V22.5409C26.0082 22.5986 25.9505 22.6563 25.8929 22.714C25.7776 22.7717 25.7199 22.714 25.6623 22.714H25.6046C25.547 22.714 25.547 22.714 25.4893 22.6563L25.374 22.5986H25.3164L25.2587 22.3101C25.2011 22.1947 25.2011 22.0794 25.2587 21.964C25.3164 21.9063 25.3164 21.8486 25.3164 21.8486H25.2587C25.2587 21.8486 25.1434 21.8486 25.0858 21.8486H24.9705C24.9128 21.8486 24.9128 21.8486 24.8552 21.8486C24.7975 21.8486 24.7399 21.8486 24.6246 21.8486C24.5669 21.8486 24.5093 21.8486 24.3363 21.7332C24.3363 21.7909 24.394 21.7909 24.394 21.7909C24.394 21.8486 24.394 21.8486 24.4516 21.8486C24.5093 21.964 24.4516 22.0217 24.4516 22.0794C24.4516 22.1947 24.394 22.3101 24.394 22.3678C24.394 22.4255 24.3363 22.4832 24.2787 22.5409C24.2787 22.5409 24.2787 22.5409 24.221 22.5409H24.2787C24.3363 22.5409 24.394 22.5409 24.4516 22.5986H24.5093C24.6246 22.6563 24.7399 22.6563 24.7975 22.6563L24.9128 22.714C25.0281 22.714 25.0281 22.714 25.0281 22.714C25.0281 22.714 25.0858 22.714 25.0858 22.6563C25.0858 22.6563 25.0858 22.6563 25.1434 22.5986C25.2011 22.5409 25.2011 22.4832 25.3164 22.4255C25.3164 22.5986 25.374 22.5986 25.4317 22.5986Z" fill="white"/>
<path d="M27.2767 21.6755C27.219 21.6755 27.219 21.6755 27.2767 21.6755C27.0461 21.6755 26.9308 21.6178 26.8731 21.6178C26.7002 21.5601 26.6425 21.5601 26.5272 21.5024C26.4119 21.4447 26.2966 21.4447 26.2389 21.387C26.1813 21.3294 26.1237 21.2717 26.0084 21.1563H25.893C25.8354 21.0986 25.8354 21.0986 25.8354 21.0986C25.7777 21.0986 25.7777 21.1563 25.7201 21.214C25.6624 21.2717 25.5471 21.3294 25.4318 21.3294C25.3165 21.3294 25.2589 21.3294 25.1436 21.2717L25.0283 21.214C24.9706 21.214 24.8553 21.1563 24.7977 21.1563H24.74C24.6824 21.1563 24.6824 21.1563 24.6247 21.0986C24.5094 21.0409 24.3941 21.0409 24.2788 20.9255C24.2212 20.8678 24.2212 20.8101 24.2212 20.7524C24.2212 20.637 24.2788 20.5794 24.2788 20.5217C24.3365 20.464 24.3941 20.4063 24.3941 20.4063C24.4518 20.3486 24.4518 20.3486 24.4518 20.2909C24.4518 20.2909 24.5094 20.2332 24.5094 20.1178C24.5094 20.0601 24.5094 20.0601 24.5094 20.0024C24.5094 19.9447 24.5094 19.9447 24.4518 19.887C24.4518 19.887 24.4518 19.8294 24.3941 19.7717C24.3941 19.6563 24.3941 19.5986 24.3941 19.5409C24.3941 19.4255 24.5094 19.3678 24.5671 19.3101C24.6824 19.2524 24.7977 19.3101 24.913 19.3101C25.1436 19.4255 25.1436 19.4255 25.2012 19.4255C25.2589 19.4255 25.3165 19.4255 25.3165 19.4255H25.3742C25.3742 19.4255 25.4318 19.4255 25.4895 19.4255C25.6048 19.4255 25.6624 19.3678 25.7777 19.4255C25.8354 19.4255 26.0083 19.4832 26.066 19.5986C26.066 19.5986 26.1813 19.714 26.1236 19.887C26.1236 19.9447 26.1236 20.0024 26.066 20.1178C26.1236 20.0024 26.2389 19.9447 26.2389 19.887C26.2966 19.8294 26.4119 19.7717 26.5849 19.7717C26.7002 19.7717 26.8731 19.8294 26.9308 19.9447C26.9884 20.0024 27.0461 20.1178 27.0461 20.2332C27.0461 20.3486 27.0461 20.4063 26.9884 20.5217C27.1614 20.5794 27.219 20.5794 27.2767 20.637C27.3343 20.6947 27.4496 20.7524 27.5073 20.8678C27.5073 20.9255 27.6226 21.0409 27.6226 21.1563C27.6226 21.2717 27.5649 21.5024 27.392 21.5601C27.392 21.6755 27.3343 21.6755 27.2767 21.6755ZM25.8354 20.637C25.893 20.637 25.893 20.637 25.9507 20.637C26.066 20.637 26.1236 20.7524 26.2389 20.8101L26.2966 20.8678C26.3543 20.9255 26.4119 20.9832 26.4696 21.0409C26.4696 21.0409 26.5849 21.0986 26.6425 21.0986C26.7578 21.1563 26.8155 21.1563 26.9884 21.214C26.9884 21.214 27.1037 21.2717 27.2767 21.2717V21.214C27.2767 21.1563 27.2767 21.1563 27.219 21.0986C27.219 21.0409 27.1614 21.0409 27.1614 21.0409C27.1614 21.0409 27.1037 21.0409 26.9308 20.9832H26.8731C26.7578 20.9255 26.6425 20.9255 26.5849 20.7524C26.5849 20.637 26.5849 20.5794 26.5849 20.5217C26.5849 20.5217 26.5849 20.464 26.6425 20.4063C26.6425 20.3486 26.7002 20.2909 26.7002 20.2909V20.2332C26.7002 20.2332 26.7002 20.2332 26.6425 20.2332C26.5849 20.2332 26.5849 20.2332 26.5849 20.2909L26.5272 20.3486C26.5272 20.4063 26.5272 20.4063 26.4696 20.4063V20.464C26.4696 20.5217 26.4119 20.5794 26.3543 20.637C26.239 20.6947 26.1236 20.637 26.1236 20.5794H26.066C26.0083 20.5794 26.0083 20.5794 25.9507 20.5217L25.893 20.464H25.8354L25.7201 20.3486C25.6624 20.2332 25.7201 20.1178 25.7201 20.0024C25.7777 19.887 25.7777 19.887 25.7777 19.8294V19.7717C25.7777 19.7717 25.7777 19.7717 25.7201 19.7717C25.7201 19.7717 25.6624 19.7717 25.5471 19.7717H25.4318C25.3742 19.7717 25.3742 19.7717 25.3165 19.7717C25.2589 19.7717 25.1436 19.7717 25.0859 19.7717C25.0283 19.7717 25.0283 19.7717 24.8553 19.6563C24.8553 19.714 24.8553 19.714 24.913 19.714C24.913 19.7717 24.913 19.7717 24.913 19.7717C24.913 19.887 24.913 19.9447 24.913 20.0024C24.913 20.1178 24.8553 20.2332 24.8553 20.2909C24.7977 20.3486 24.7977 20.4063 24.74 20.464L24.6824 20.5217C24.74 20.5217 24.7977 20.5217 24.7977 20.5794H24.8553C24.9706 20.5794 25.0283 20.637 25.1436 20.637L25.2589 20.6947C25.3165 20.6947 25.3165 20.6947 25.3165 20.6947C25.3165 20.6947 25.3742 20.6947 25.3742 20.637C25.3742 20.637 25.3742 20.5794 25.4318 20.5794C25.4895 20.5217 25.4895 20.464 25.6048 20.4063C25.7201 20.637 25.7777 20.637 25.8354 20.637Z" fill="white"/>
<path d="M27.7377 19.8293C27.6801 19.8293 27.6801 19.8293 27.6801 19.8293C27.5071 19.8293 27.3918 19.7716 27.3342 19.7716C27.1612 19.7139 27.1036 19.7139 26.9883 19.6563C26.873 19.5986 26.7577 19.5986 26.7 19.5409C26.6424 19.4832 26.5847 19.4255 26.4694 19.3678L26.4118 19.3101C26.3541 19.2524 26.3541 19.2524 26.3541 19.2524C26.3541 19.3101 26.2965 19.3678 26.2388 19.4255C26.1812 19.4255 26.1235 19.4255 26.0082 19.4255C25.8929 19.4255 25.8353 19.4255 25.72 19.3678L25.6047 19.3101C25.547 19.2524 25.4317 19.2524 25.3741 19.2524H25.3164C25.2588 19.2524 25.2588 19.2524 25.2011 19.1947C25.0858 19.137 24.9705 19.137 24.9129 19.0216C24.8552 18.9639 24.8552 18.9063 24.8552 18.8486C24.8552 18.7332 24.9129 18.6755 24.9705 18.6178C25.0282 18.5601 25.0858 18.5601 25.0858 18.5024L25.1435 18.4447C25.1435 18.4447 25.2011 18.387 25.2011 18.3293C25.2011 18.2716 25.2011 18.2716 25.2011 18.2139C25.2011 18.1563 25.2011 18.1563 25.1435 18.0986C25.1435 18.0986 25.1435 18.0409 25.0858 17.9832C25.0858 17.9255 25.0858 17.8678 25.0858 17.7524C25.0858 17.637 25.2011 17.5793 25.2588 17.5216C25.3741 17.4639 25.4894 17.5216 25.6047 17.5793C25.7776 17.6947 25.8353 17.6947 25.8353 17.6947C25.8929 17.6947 25.9506 17.6947 25.9506 17.6947C25.9506 17.6947 25.9506 17.6947 26.0082 17.6947H26.1235C26.2388 17.6947 26.2965 17.6947 26.4118 17.6947C26.4694 17.6947 26.5847 17.7524 26.7 17.8678C26.7 17.9255 26.8153 18.0409 26.7577 18.1563C26.7577 18.2139 26.7577 18.2139 26.7 18.2716C26.7577 18.2139 26.8153 18.1563 26.8153 18.1563C26.873 18.0986 26.9883 18.0409 27.1036 18.0409C27.2189 18.0409 27.3342 18.0986 27.4495 18.2139C27.5071 18.2716 27.5648 18.387 27.5648 18.5024C27.5648 18.6178 27.5648 18.6755 27.5071 18.7332C27.6801 18.7909 27.7377 18.8486 27.7954 18.8486C27.853 18.9063 27.9107 18.9639 28.026 19.0216C28.026 19.0793 28.0836 19.137 28.0836 19.3101C28.0836 19.4255 28.026 19.5986 27.853 19.7139C27.853 19.8293 27.7954 19.8293 27.7377 19.8293ZM26.4118 18.7909C26.4694 18.7909 26.5271 18.7909 26.5271 18.7909C26.6424 18.8486 26.7 18.9063 26.8153 18.9639L26.873 19.0216C26.9306 19.0793 26.9883 19.137 26.9883 19.137C26.9883 19.137 27.1036 19.1947 27.1612 19.1947C27.2765 19.2524 27.3342 19.2524 27.5071 19.3101C27.5071 19.3101 27.6224 19.3678 27.7377 19.3678C27.7377 19.3678 27.7377 19.3678 27.7377 19.3101V19.2524C27.7377 19.1947 27.6801 19.1947 27.6801 19.1947C27.6801 19.1947 27.6224 19.1947 27.5071 19.137C27.3342 19.0793 27.2765 19.0216 27.2189 18.9063C27.2189 18.7909 27.2189 18.7332 27.2189 18.6755C27.2189 18.6755 27.2189 18.6178 27.2765 18.6178C27.2765 18.5601 27.3342 18.5024 27.3342 18.5024V18.4447C27.3342 18.4447 27.3342 18.4447 27.2765 18.4447C27.2765 18.4447 27.2189 18.4447 27.2189 18.5024C27.2189 18.5024 27.1612 18.5024 27.1612 18.5601V18.6178V18.6755C27.1612 18.7332 27.1036 18.7909 27.0459 18.8486C26.9306 18.9063 26.8153 18.8486 26.8153 18.7909H26.7577C26.7 18.7909 26.7 18.7909 26.7 18.7332L26.6424 18.6755H26.5847L26.4694 18.5601C26.4118 18.4447 26.4694 18.3293 26.4694 18.2716C26.5271 18.2139 26.5271 18.1563 26.5271 18.1563V17.9255L26.4694 18.0986C26.4694 18.0986 26.4118 18.0986 26.3541 18.0986H26.2388C26.1812 18.0986 26.1812 18.0986 26.1235 18.0986C26.0659 18.0986 25.9506 18.0986 25.8929 18.0409C25.8353 18.0409 25.8353 18.0409 25.72 17.9832V18.0409V18.0986C25.72 18.2139 25.72 18.2716 25.72 18.3293C25.72 18.4447 25.6623 18.5601 25.6623 18.5601C25.6623 18.6178 25.6047 18.6755 25.547 18.7332C25.6047 18.7332 25.6047 18.7332 25.6623 18.7909H25.72C25.8353 18.8486 25.8929 18.8486 25.9506 18.9063L26.0659 18.9639C26.1235 18.9639 26.1235 18.9639 26.1235 18.9639H26.1812C26.1812 18.9639 26.1812 18.9639 26.2388 18.9063C26.2965 18.8486 26.2965 18.7909 26.4118 18.7332C26.2965 18.7909 26.3541 18.7909 26.4118 18.7909Z" fill="white"/>
<path d="M23.5293 31.4832C23.414 31.4832 23.3564 31.4255 23.3564 31.3678C23.2987 31.3101 23.3564 31.1947 23.4141 31.137C23.4141 31.137 23.8753 30.7909 24.3365 30.4447L24.4518 30.387C24.5671 30.3293 24.5671 30.3293 24.6247 30.214V30.1563C24.74 29.9832 24.74 29.8101 24.6824 29.7524C24.6247 29.6947 24.4518 29.5793 24.3365 29.5216L24.4518 29.3486L24.3365 29.5216C24.2212 29.464 23.9329 29.2909 23.8176 28.887C23.7023 28.5409 23.8176 28.2524 23.9906 28.0793C24.1059 28.0216 24.1635 27.964 24.2788 27.964C24.3365 27.964 24.4518 27.964 24.5671 27.9063C24.74 27.8486 24.913 27.7909 24.9706 27.7332C25.0283 27.7332 25.0283 27.6755 25.0283 27.6755C25.0859 27.5601 25.1436 27.5024 25.3742 27.4447C25.5471 27.387 25.8354 27.387 26.0083 27.5601C26.1236 27.6755 26.1236 27.7909 26.1236 28.0216V28.137C26.1236 28.4255 26.1813 28.4832 26.1813 28.4832C26.1813 28.5409 26.2389 28.5409 26.2389 28.5409C26.2966 28.5986 26.3542 28.5986 26.4119 28.714C26.5272 28.9447 26.4119 29.1755 26.3542 29.3486C26.2966 29.4063 26.2966 29.464 26.2389 29.5216C26.2389 29.5793 26.2389 29.5793 26.2389 29.5793C26.2389 29.637 26.2966 29.6947 26.2966 29.8101C26.2389 29.9255 26.1813 29.9832 26.1236 30.0409C26.066 30.0409 26.066 30.0986 26.0083 30.0986L25.893 30.1563C25.7777 30.2139 25.7777 30.2716 25.7777 30.2716C25.7777 30.387 25.7777 30.5024 25.7201 30.5601C25.6624 30.6755 25.4895 30.7332 25.4318 30.7909C25.3742 30.7909 25.3165 30.8486 25.2589 30.8486L25.2012 30.9063C25.1436 30.964 25.0859 31.0216 25.0283 31.0793C24.8553 31.1947 24.6247 31.2524 24.3365 31.3101H24.2212C24.1059 31.3101 24.0482 31.3678 23.9906 31.3678C23.6447 31.4255 23.5293 31.4832 23.5293 31.4832ZM25.4895 27.7909C25.4318 27.7909 25.3742 27.7909 25.3742 27.7909C25.3165 27.7909 25.3165 27.7909 25.3165 27.7909C25.2589 27.8486 25.2012 27.9063 25.1436 27.964C25.1436 27.964 25.1436 27.964 25.0859 27.964C25.0859 27.964 24.8553 28.0793 24.6247 28.1947C24.4518 28.2524 24.3365 28.2524 24.2212 28.3101C24.1635 28.3101 24.1635 28.3101 24.1059 28.3101C24.1059 28.3101 24.0482 28.4255 24.1059 28.6563C24.2212 28.9447 24.3365 29.0024 24.4518 29.0601C24.4518 29.0601 24.4518 29.0601 24.5094 29.0601C24.6824 29.1755 24.8553 29.2909 24.9706 29.3486C25.1436 29.5216 25.2589 29.8101 24.9706 30.214C24.8553 30.387 24.7977 30.4447 24.6824 30.5601L24.5671 30.6178C24.5094 30.6755 24.4518 30.7332 24.3365 30.7909C24.5094 30.7332 24.6247 30.7332 24.6824 30.6755C24.6824 30.6755 24.74 30.6178 24.7977 30.5601C24.8553 30.5024 24.913 30.4447 24.9706 30.387C25.0859 30.3293 25.1436 30.3293 25.2012 30.2716H25.2589C25.2589 30.2716 25.2589 30.2139 25.2589 30.1563C25.2589 30.0986 25.2589 30.0986 25.2589 30.0409C25.3165 29.8678 25.4318 29.8101 25.5471 29.6947L25.6624 29.637C25.7201 29.5793 25.7777 29.5793 25.8354 29.5216C25.8354 29.464 25.7777 29.4063 25.7777 29.3486C25.7777 29.2332 25.8354 29.1178 25.893 29.1178C25.893 29.1178 25.9507 29.0601 25.9507 29.0024C26.0083 28.887 26.066 28.8293 26.0083 28.7716C26.0083 28.7716 26.0083 28.7716 25.9507 28.714C25.893 28.6563 25.8354 28.6563 25.7777 28.5409C25.6624 28.4255 25.6624 28.3101 25.6624 27.964V27.8486C25.6624 27.7909 25.6624 27.6755 25.6624 27.6755C25.6624 27.7909 25.5471 27.7909 25.4895 27.7909Z" fill="white"/>
<path d="M28.9483 19.5409C28.6024 20.4063 28.4294 21.3293 28.3718 22.2524C28.3141 22.714 28.3141 23.1755 28.3718 23.637C28.3718 23.8678 28.4294 24.0986 28.4294 24.3293L28.5447 25.0216C28.66 26.0024 28.5447 26.9832 28.2565 27.9063C28.0835 28.3678 27.9106 28.8293 27.68 29.2332C27.5647 29.464 27.4494 29.637 27.2764 29.8678C27.2188 29.9832 27.1035 30.0409 27.0458 30.1563L26.8152 30.387V30.4447C26.8152 30.4447 26.7576 30.5024 26.6999 30.4447C26.6999 30.4447 26.6423 30.387 26.6999 30.387C26.7576 30.2716 26.8729 30.1563 26.9305 30.0986C26.9882 29.9832 27.0458 29.9255 27.1035 29.8101C27.2188 29.637 27.3341 29.4063 27.4494 29.1755C27.68 28.7716 27.8529 28.3101 27.9682 27.8486C28.1988 26.9255 28.2565 26.0024 28.1412 25.0793L28.0259 24.387C27.9682 24.1563 27.9682 23.9255 27.9682 23.637C27.9682 23.1755 27.9682 22.6563 28.0259 22.1947C28.1412 21.2716 28.4294 20.2909 28.7753 19.4255C28.7753 19.3678 28.833 19.3678 28.8906 19.3678C28.9483 19.4832 28.9483 19.5409 28.9483 19.5409Z" fill="white"/>
</svg>
