<svg width="24" height="24" viewBox="0 0 24 24" fill="none" xmlns="http://www.w3.org/2000/svg">
<g clip-path="url(#clip0_8720_2216)">
<path d="M19.7073 23.5891C14.5743 24.137 9.42572 24.137 4.29272 23.5891C2.24597 23.3707 0.629333 21.754 0.410889 19.7071C-0.136963 14.5741 -0.136963 9.42572 0.410889 4.29272C0.629333 2.24597 2.24597 0.629333 4.29272 0.410889C9.42572 -0.136963 14.5741 -0.136963 19.7071 0.410889C21.754 0.629333 23.3707 2.24597 23.5891 4.29272C24.137 9.42572 24.137 14.5741 23.5891 19.7071C23.3707 21.754 21.7542 23.3707 19.7073 23.5891Z" fill="url(#paint0_linear_8720_2216)"/>
<path d="M22.2837 5.1608C22.09 3.34457 20.6555 1.90994 18.8391 1.71603C14.2842 1.23007 9.71573 1.23007 5.1608 1.71603C3.34457 1.90994 1.90994 3.34457 1.71603 5.1608C1.23007 9.71573 1.23007 14.2842 1.71603 18.839C1.90994 20.6554 3.34457 22.09 5.1608 22.2837C9.71573 22.7699 14.2842 22.7699 18.839 22.2837C20.6554 22.09 22.09 20.6554 22.2837 18.839C22.7699 14.2842 22.7699 9.71573 22.2837 5.1608Z" fill="url(#paint1_linear_8720_2216)"/>
<path d="M0.359375 19.2096C0.375855 19.3755 0.392883 19.5414 0.410645 19.7073C0.629089 21.754 2.24573 23.3707 4.29266 23.5891C9.42566 24.137 14.574 24.137 19.707 23.5891C21.754 23.3707 23.3704 21.754 23.5889 19.7073C23.6066 19.5414 23.6237 19.3755 23.6403 19.2096H0.359375Z" fill="url(#paint2_linear_8720_2216)"/>
<path d="M23.9955 11.1566L19.0137 6.17505C18.4554 6.4942 17.9634 6.67126 17.5928 6.76941C17.3845 6.82526 17.2144 6.85565 17.092 6.87231C16.5303 6.29645 15.7458 5.93884 14.8776 5.93884C13.1692 5.93884 11.784 7.32385 11.784 9.03259C11.784 9.0943 11.7856 9.15527 11.7897 9.21606C11.7979 9.3642 11.8168 9.50977 11.8459 9.65131C11.1327 9.64069 8.81458 9.45026 6.60376 7.55511C6.60358 7.55511 6.60358 7.55493 6.60358 7.55493H6.60339L5.56079 6.51215C5.56079 6.51215 4.33765 8.64697 6.13593 10.2669C6.21484 10.355 6.30164 10.442 6.39667 10.5275C6.40417 10.5359 6.41205 10.5441 6.41956 10.5526C6.18353 10.5366 5.47363 10.4659 5.06274 10.1757C5.06274 10.1757 4.98016 11.4805 6.06726 12.4411L6.94507 13.3264C6.67773 13.3486 6.38202 13.3433 6.17639 13.2532C6.17639 13.2532 6.3584 14.0261 7.06189 14.6446L8.29163 15.8807C7.55389 16.3105 6.26245 16.8483 4.5625 16.7109L12.0224 24C14.5855 23.9993 17.1486 23.8623 19.7079 23.5891C21.7548 23.3707 23.3715 21.754 23.5899 19.7073C23.8937 16.86 24.0286 14.0079 23.9955 11.1566Z" fill="url(#paint3_linear_8720_2216)"/>
<path d="M19.4391 7.37659C18.9081 7.65436 18.1083 7.78271 17.8431 7.8197C17.8409 7.80688 17.8387 7.79462 17.8365 7.78235C18.738 7.22479 19.0139 6.17505 19.0139 6.17505C18.4556 6.4942 17.9636 6.67126 17.593 6.76941C17.3846 6.82526 17.2145 6.85547 17.0922 6.87231C16.5305 6.29626 15.746 5.93884 14.8777 5.93884C13.1694 5.93884 11.7842 7.32367 11.7842 9.03259C11.7842 9.09412 11.7858 9.15527 11.7899 9.21588C11.7981 9.36401 11.817 9.50958 11.8461 9.65112C11.0192 9.63885 8.03436 9.38525 5.56097 6.51215C5.56097 6.51215 4.18365 8.91522 6.49921 10.5568C6.49921 10.5568 5.56097 10.5275 5.06293 10.1757C5.06293 10.1757 4.91644 12.4913 7.58337 13.2237C7.58337 13.2237 6.64569 13.4584 6.17639 13.2532C6.17639 13.2532 6.64551 15.2461 8.99017 15.3929C8.99017 15.3929 7.30853 16.9325 4.5625 16.7109C5.91309 17.566 7.51434 18.061 9.23114 18.061C14.0583 18.061 17.9717 14.1478 17.9717 9.32062C17.9717 9.26038 17.9711 9.20013 17.9698 9.13989C17.9711 9.10419 17.9717 9.06866 17.9717 9.03259C17.9717 9.00751 17.9711 8.98242 17.9708 8.95734C18.8632 8.36261 19.4391 7.37659 19.4391 7.37659Z" fill="white"/>
</g>
<defs>
<linearGradient id="paint0_linear_8720_2216" x1="7.96847" y1="3.37435" x2="14.0388" y2="16.3619" gradientUnits="userSpaceOnUse">
<stop stop-color="#00C3FF"/>
<stop offset="1" stop-color="#00B0ED"/>
</linearGradient>
<linearGradient id="paint1_linear_8720_2216" x1="17.0757" y1="14.7228" x2="-17.7931" y2="-3.98216" gradientUnits="userSpaceOnUse">
<stop stop-color="#00B0ED" stop-opacity="0"/>
<stop offset="1" stop-color="#00A2CE"/>
</linearGradient>
<linearGradient id="paint2_linear_8720_2216" x1="11.9998" y1="20.5023" x2="11.9998" y2="23.6471" gradientUnits="userSpaceOnUse">
<stop stop-color="#00B0ED" stop-opacity="0"/>
<stop offset="1" stop-color="#00A2CE"/>
</linearGradient>
<linearGradient id="paint3_linear_8720_2216" x1="22.9422" y1="22.5971" x2="11.2175" y2="10.8724" gradientUnits="userSpaceOnUse">
<stop stop-color="#00B0ED" stop-opacity="0"/>
<stop offset="1" stop-color="#00A2CE"/>
</linearGradient>
<clipPath id="clip0_8720_2216">
<rect width="24" height="24" fill="white"/>
</clipPath>
</defs>
</svg>
