<svg width="24" height="24" viewBox="0 0 24 24" fill="none" xmlns="http://www.w3.org/2000/svg">
<g clip-path="url(#clip0_8720_2196)">
<path d="M19.7073 23.5891C14.5743 24.137 9.42572 24.137 4.29272 23.5891C2.24597 23.3707 0.629333 21.754 0.410889 19.7071C-0.136963 14.5741 -0.136963 9.42572 0.410889 4.29272C0.629333 2.24597 2.24597 0.629333 4.29272 0.410889C9.42572 -0.136963 14.5741 -0.136963 19.7071 0.410889C21.754 0.629333 23.3707 2.24597 23.5891 4.29272C24.137 9.42572 24.137 14.5741 23.5891 19.7071C23.3707 21.754 21.7542 23.3707 19.7073 23.5891Z" fill="url(#paint0_linear_8720_2196)"/>
<path d="M22.2837 5.16086C22.09 3.34464 20.6555 1.91 18.8391 1.71609C14.2842 1.23013 9.71573 1.23013 5.1608 1.71609C3.34457 1.91 1.90994 3.34464 1.71603 5.16086C1.23007 9.71579 1.23007 14.2843 1.71603 18.839C1.90994 20.6554 3.34457 22.0901 5.1608 22.2838C9.71573 22.7699 14.2842 22.7699 18.839 22.2838C20.6554 22.0901 22.09 20.6554 22.2837 18.839C22.7699 14.2843 22.7699 9.71579 22.2837 5.16086Z" fill="url(#paint1_linear_8720_2196)"/>
<path d="M0.359375 19.2096C0.375855 19.3755 0.392883 19.5414 0.410645 19.7073C0.629089 21.754 2.24573 23.3707 4.29266 23.5891C9.42566 24.137 14.574 24.137 19.707 23.5891C21.754 23.3707 23.3704 21.754 23.5889 19.7073C23.6066 19.5414 23.6237 19.3755 23.6403 19.2096H0.359375Z" fill="url(#paint2_linear_8720_2196)"/>
<path d="M19.7075 23.5891C21.7544 23.3706 23.3709 21.754 23.5893 19.7071C23.829 17.4626 23.9638 15.2151 23.9938 12.9671L18.7804 7.75394C18.5127 7.42216 18.2707 7.39139 17.7689 7.29343C17.3625 7.21396 16.9466 7.15977 16.533 7.14347C15.2104 7.09128 13.8869 7.04166 12.5634 7.02903C10.6201 7.01053 8.67648 7.01694 6.74087 7.2418C5.90628 7.33866 5.02408 7.99326 4.92941 8.88553C4.88089 9.34403 4.79666 9.79996 4.77047 10.2596C4.67471 11.9333 4.65475 13.6062 4.88876 15.2734C4.96713 15.8316 5.05337 16.0871 5.42965 16.3984L13.024 23.9927C15.2529 23.961 17.4817 23.8266 19.7075 23.5891Z" fill="url(#paint3_linear_8720_2196)"/>
<path d="M12.412 17.1658C10.4748 17.1007 8.97531 17.0638 7.47769 16.9924C7.02066 16.9704 6.55026 16.9083 6.1174 16.7677C5.32071 16.5091 4.86624 15.9265 4.74814 15.0851C4.51413 13.4179 4.53408 11.7451 4.62985 10.0713C4.65622 9.61173 4.74044 9.1558 4.78897 8.6973C4.88327 7.80503 5.76565 7.15024 6.60025 7.05356C8.53604 6.82871 10.4795 6.8223 12.423 6.8408C13.7465 6.85343 15.0698 6.90305 16.3924 6.95524C16.806 6.97153 17.2218 7.02592 17.6283 7.1052C18.5241 7.28007 19.0423 7.84037 19.2001 8.74033C19.4136 9.95798 19.4694 11.1874 19.4246 12.4173C19.3907 13.3482 19.2948 14.2776 19.1983 15.2049C19.0917 16.2283 18.2057 16.8343 17.4077 16.8869C15.5991 17.0061 13.7886 17.0907 12.412 17.1658Z" fill="url(#paint4_linear_8720_2196)"/>
<path d="M10.584 14.2641C11.8346 13.4963 13.0546 12.7469 14.3113 11.9753C13.0572 11.2046 11.8373 10.455 10.584 9.68481V14.2641Z" fill="white"/>
</g>
<defs>
<linearGradient id="paint0_linear_8720_2196" x1="5.45964" y1="-0.600231" x2="22.7529" y2="32.7158" gradientUnits="userSpaceOnUse">
<stop stop-color="#FFFCF8"/>
<stop offset="0.1875" stop-color="#FAF8F6"/>
<stop offset="0.4041" stop-color="#ECEEF2"/>
<stop offset="0.6353" stop-color="#D5DCEA"/>
<stop offset="0.875" stop-color="#B5C4DF"/>
<stop offset="1" stop-color="#A1B5D8"/>
</linearGradient>
<linearGradient id="paint1_linear_8720_2196" x1="9.20494" y1="10.4278" x2="-31.4539" y2="-12.4428" gradientUnits="userSpaceOnUse">
<stop stop-color="#A1B5D8" stop-opacity="0"/>
<stop offset="0.3094" stop-color="#90A2BD" stop-opacity="0.309804"/>
<stop offset="0.7554" stop-color="#7C8B9C" stop-opacity="0.756863"/>
<stop offset="1" stop-color="#748290"/>
</linearGradient>
<linearGradient id="paint2_linear_8720_2196" x1="11.9998" y1="21.1859" x2="11.9998" y2="24.9269" gradientUnits="userSpaceOnUse">
<stop stop-color="#A1B5D8" stop-opacity="0"/>
<stop offset="0.3094" stop-color="#90A2BD" stop-opacity="0.309804"/>
<stop offset="0.7554" stop-color="#7C8B9C" stop-opacity="0.756863"/>
<stop offset="1" stop-color="#748290"/>
</linearGradient>
<linearGradient id="paint3_linear_8720_2196" x1="19.8521" y1="19.8241" x2="3.38719" y2="3.35926" gradientUnits="userSpaceOnUse">
<stop stop-color="#A1B5D8" stop-opacity="0"/>
<stop offset="0.3094" stop-color="#90A2BD" stop-opacity="0.309804"/>
<stop offset="0.7554" stop-color="#7C8B9C" stop-opacity="0.756863"/>
<stop offset="1" stop-color="#748290"/>
</linearGradient>
<linearGradient id="paint4_linear_8720_2196" x1="11.0931" y1="9.36984" x2="13.2971" y2="15.7875" gradientUnits="userSpaceOnUse">
<stop stop-color="#E52D27"/>
<stop offset="1" stop-color="#B31217"/>
</linearGradient>
<clipPath id="clip0_8720_2196">
<rect width="24" height="24" fill="white"/>
</clipPath>
</defs>
</svg>
