<svg width="20" height="20" viewBox="0 0 20 20" fill="none" xmlns="http://www.w3.org/2000/svg">
<g clip-path="url(#clip0_13_9514)">
<path d="M0.0624297 9.58371C0.228936 9.33397 3.7253 3.34021 9.96879 3.34021C16.2123 3.34021 19.7086 9.33397 19.8751 9.58371C20.0416 9.83345 20.0416 10.1664 19.8751 10.4162C19.7086 10.6659 16.2123 16.6597 9.96876 16.6597C3.72526 16.6597 0.228898 10.6659 0.0623916 10.4162C-0.020842 10.1664 -0.020843 9.83345 0.0624297 9.58371ZM9.96876 14.1623C12.2997 14.1623 14.1311 12.3308 14.1311 9.99995C14.1311 7.66906 12.2997 5.83761 9.96876 5.83761C7.63782 5.83761 5.80641 7.66902 5.80641 9.99995C5.80641 12.3309 7.63786 14.1623 9.96876 14.1623Z" fill="#545454"/>
<path d="M9.96867 7.50269C11.3839 7.50269 12.4661 8.58488 12.4661 10.0001C12.4661 11.4153 11.3839 12.4975 9.96867 12.4975C8.55346 12.4975 7.47127 11.4153 7.47127 10.0001C7.47127 8.58488 8.5535 7.50269 9.96867 7.50269ZM9.13621 10.0001C9.63569 10.0001 9.96867 9.66711 9.96867 9.16763C9.96867 8.66815 9.63569 8.33518 9.13621 8.33518C8.63673 8.33518 8.30376 8.66815 8.30376 9.16763C8.30376 9.66707 8.63673 10.0001 9.13621 10.0001Z" fill="#545454"/>
</g>
<defs>
<clipPath id="clip0_13_9514">
<rect width="20" height="20" fill="white" transform="matrix(-1 0 0 1 20 0)"/>
</clipPath>
</defs>
</svg>
