<svg width="24" height="24" viewBox="0 0 24 24" fill="none" xmlns="http://www.w3.org/2000/svg">
<g clip-path="url(#clip0_8720_2203)">
<path d="M23.5891 4.29272C23.3707 2.24597 21.7542 0.62915 19.7073 0.410889C14.5741 -0.136963 9.4259 -0.136963 4.29291 0.410889C2.24597 0.629333 0.629333 2.24597 0.410889 4.29272C-0.136963 9.42572 -0.136963 14.5741 0.410889 19.7071C0.629333 21.754 2.24597 23.3707 4.29272 23.5891C9.42572 24.137 14.5741 24.137 19.7073 23.5891C21.7542 23.3707 23.3707 21.754 23.5891 19.7071C24.137 14.5741 24.137 9.4259 23.5891 4.29272Z" fill="url(#paint0_radial_8720_2203)"/>
<path d="M22.2837 5.1608C22.09 3.34457 20.6555 1.90994 18.8391 1.71603C14.2842 1.23007 9.71573 1.23007 5.1608 1.71603C3.34457 1.90994 1.90994 3.34457 1.71603 5.1608C1.23007 9.71573 1.23007 14.2842 1.71603 18.839C1.90994 20.6554 3.34457 22.09 5.1608 22.2837C9.71573 22.7699 14.2842 22.7699 18.839 22.2837C20.6554 22.09 22.09 20.6554 22.2837 18.839C22.7699 14.2842 22.7699 9.71573 22.2837 5.1608Z" fill="url(#paint1_linear_8720_2203)"/>
<path d="M0.359375 19.2096C0.375855 19.3755 0.392883 19.5414 0.410645 19.7073C0.629089 21.754 2.24573 23.3707 4.29266 23.5891C9.42566 24.137 14.574 24.137 19.707 23.5891C21.754 23.3707 23.3704 21.754 23.5889 19.7073C23.6066 19.5414 23.6237 19.3755 23.6403 19.2096H0.359375Z" fill="url(#paint2_linear_8720_2203)"/>
<path d="M23.5888 19.7071C23.8832 16.949 24.0191 14.1865 23.9971 11.4243L18.5113 5.9385C17.8259 5.15609 16.8249 4.66775 15.6486 4.62545C13.2296 4.5383 10.8029 4.54269 8.38354 4.62582C6.37415 4.69504 4.96899 6.04562 4.60864 8.03067C4.5451 8.38113 4.50702 8.73617 4.45703 9.0892V14.9087C4.48468 15.0973 4.52533 15.2849 4.53796 15.4746C4.61853 16.682 5.11475 17.7162 5.90924 18.4159L11.4918 23.9982C14.2314 24.0174 16.9712 23.8812 19.707 23.5891C21.7539 23.3707 23.3704 21.7541 23.5888 19.7071Z" fill="url(#paint3_linear_8720_2203)"/>
<path d="M23.5889 19.7073C23.3707 21.7538 21.7537 23.3708 19.7071 23.5891C16.9717 23.881 14.2313 24.0174 11.4921 23.9982L5.91797 18.4241C6.56415 18.9897 7.40643 19.3341 8.38385 19.3709C10.8027 19.4617 13.2299 19.4594 15.6487 19.3722C17.8365 19.2931 19.4196 17.6739 19.4879 15.4861C19.5608 13.1633 19.5608 10.8344 19.4879 8.51147C19.4568 7.5022 19.1025 6.61414 18.5151 5.94214L23.9974 11.4245C24.019 14.1863 23.8832 16.9492 23.5889 19.7073Z" fill="url(#paint4_linear_8720_2203)"/>
<path d="M14.8323 9.40118C14.1295 8.63599 13.1212 8.15588 12.0004 8.15588C9.87744 8.15588 8.15625 9.87708 8.15625 12C8.15625 13.1208 8.63635 14.1292 9.40155 14.8319L18.2955 23.7259C18.7663 23.6849 19.2371 23.6393 19.7075 23.5891C21.7544 23.3707 23.371 21.754 23.5895 19.7071C23.6396 19.2367 23.6852 18.7659 23.7263 18.2952L14.8323 9.40118Z" fill="url(#paint5_linear_8720_2203)"/>
<path d="M23.9538 14.5853L16.7958 7.42749C16.6288 7.20831 16.3657 7.06604 16.0689 7.06604C15.5639 7.06604 15.1543 7.47546 15.1543 7.98065C15.1543 8.27747 15.2966 8.54059 15.5157 8.70758L23.8258 17.0178C23.8822 16.2072 23.9249 15.3962 23.9538 14.5853Z" fill="url(#paint6_linear_8720_2203)"/>
<path d="M4.45703 9.0892C4.50702 8.73617 4.5451 8.38113 4.60864 8.03067C4.96881 6.04562 6.37415 4.69504 8.38354 4.62582C10.8029 4.54269 13.2296 4.5383 15.6486 4.62545C17.8356 4.70419 19.4195 6.32358 19.4878 8.51132C19.5605 10.8344 19.5605 13.1631 19.4878 15.4862C19.4195 17.6739 17.8362 19.2931 15.6488 19.372C13.2298 19.4594 10.8026 19.4616 8.38373 19.3708C6.19635 19.2885 4.68427 17.6655 4.53796 15.4745C4.52533 15.2849 4.48468 15.0971 4.45703 14.9085C4.45703 12.9687 4.45703 11.0288 4.45703 9.0892ZM12.0017 18.0755C13.1088 18.0755 14.2169 18.1086 15.3225 18.0678C17.056 18.0035 18.1222 16.969 18.1627 15.2371C18.2128 13.0793 18.2128 10.9184 18.1627 8.76034C18.1222 7.0289 17.0552 5.97018 15.3225 5.93338C13.1232 5.88687 10.9216 5.88723 8.72229 5.93338C7.00275 5.96945 5.93341 7.00674 5.88672 8.71914C5.82739 10.9043 5.82739 13.0934 5.88672 15.2785C5.93341 16.9908 7.00275 18.0041 8.72247 18.0678C9.81415 18.1084 10.9086 18.0755 12.0017 18.0755Z" fill="url(#paint7_linear_8720_2203)"/>
<path d="M4.45703 9.0892C4.50702 8.73617 4.5451 8.38113 4.60864 8.03067C4.96881 6.04562 6.37415 4.69504 8.38354 4.62582C10.8029 4.54269 13.2296 4.5383 15.6486 4.62545C17.8356 4.70419 19.4195 6.32358 19.4878 8.51132C19.5605 10.8344 19.5605 13.1631 19.4878 15.4862C19.4195 17.6739 17.8362 19.2931 15.6488 19.372C13.2298 19.4594 10.8026 19.4616 8.38373 19.3708C6.19635 19.2885 4.68427 17.6655 4.53796 15.4745C4.52533 15.2849 4.48468 15.0971 4.45703 14.9085C4.45703 12.9687 4.45703 11.0288 4.45703 9.0892ZM12.0017 18.0755C13.1088 18.0755 14.2169 18.1086 15.3225 18.0678C17.056 18.0035 18.1222 16.969 18.1627 15.2371C18.2128 13.0793 18.2128 10.9184 18.1627 8.76034C18.1222 7.0289 17.0552 5.97018 15.3225 5.93338C13.1232 5.88687 10.9216 5.88723 8.72229 5.93338C7.00275 5.96945 5.93341 7.00674 5.88672 8.71914C5.82739 10.9043 5.82739 13.0934 5.88672 15.2785C5.93341 16.9908 7.00275 18.0041 8.72247 18.0678C9.81415 18.1084 10.9086 18.0755 12.0017 18.0755Z" fill="white"/>
<path d="M12.0004 8.15607C9.87744 8.15607 8.15625 9.87708 8.15625 12C8.15625 14.1231 9.87744 15.8441 12.0004 15.8441C14.1235 15.8441 15.8445 14.1231 15.8445 12C15.8445 9.87708 14.1235 8.15607 12.0004 8.15607ZM12.0004 14.5206C10.6082 14.5206 9.47974 13.3922 9.47974 12C9.47974 10.6078 10.6082 9.47937 12.0004 9.47937C13.3925 9.47937 14.521 10.6078 14.521 12C14.521 13.3922 13.3925 14.5206 12.0004 14.5206Z" fill="white"/>
<path d="M16.9833 7.98065C16.9833 8.48566 16.5739 8.89508 16.0689 8.89508C15.5639 8.89508 15.1543 8.48566 15.1543 7.98065C15.1543 7.47546 15.5639 7.06604 16.0689 7.06604C16.5739 7.06604 16.9833 7.47546 16.9833 7.98065Z" fill="white"/>
</g>
<defs>
<radialGradient id="paint0_radial_8720_2203" cx="0" cy="0" r="1" gradientUnits="userSpaceOnUse" gradientTransform="translate(4.91986 20.9741) scale(26.4678)">
<stop stop-color="#FAE100"/>
<stop offset="0.0544" stop-color="#FADC04"/>
<stop offset="0.1167" stop-color="#FBCE0E"/>
<stop offset="0.1829" stop-color="#FCB720"/>
<stop offset="0.2514" stop-color="#FE9838"/>
<stop offset="0.3054" stop-color="#FF7950"/>
<stop offset="0.4922" stop-color="#FF1C74"/>
<stop offset="1" stop-color="#6C1CD1"/>
</radialGradient>
<linearGradient id="paint1_linear_8720_2203" x1="9.20494" y1="10.4278" x2="-31.4539" y2="-12.4428" gradientUnits="userSpaceOnUse">
<stop stop-color="#A1B5D8" stop-opacity="0"/>
<stop offset="0.3094" stop-color="#90A2BD" stop-opacity="0.309804"/>
<stop offset="0.7554" stop-color="#7C8B9C" stop-opacity="0.756863"/>
<stop offset="1" stop-color="#748290"/>
</linearGradient>
<linearGradient id="paint2_linear_8720_2203" x1="11.9998" y1="21.1859" x2="11.9998" y2="24.9269" gradientUnits="userSpaceOnUse">
<stop stop-color="#FAE100" stop-opacity="0"/>
<stop offset="0.3068" stop-color="#FCA800" stop-opacity="0.305882"/>
<stop offset="0.6275" stop-color="#FE7300" stop-opacity="0.627451"/>
<stop offset="0.8685" stop-color="#FF5200" stop-opacity="0.866667"/>
<stop offset="1" stop-color="#FF4500"/>
</linearGradient>
<linearGradient id="paint3_linear_8720_2203" x1="10.6343" y1="10.6007" x2="4.69473" y2="4.6611" gradientUnits="userSpaceOnUse">
<stop stop-color="#833AB4" stop-opacity="0"/>
<stop offset="1" stop-color="#833AB4"/>
</linearGradient>
<linearGradient id="paint4_linear_8720_2203" x1="16.4482" y1="21.951" x2="13.4837" y2="7.9752" gradientUnits="userSpaceOnUse">
<stop stop-color="#833AB4" stop-opacity="0"/>
<stop offset="1" stop-color="#833AB4"/>
</linearGradient>
<linearGradient id="paint5_linear_8720_2203" x1="17.5769" y1="17.5765" x2="5.66948" y2="5.6691" gradientUnits="userSpaceOnUse">
<stop stop-color="#833AB4" stop-opacity="0"/>
<stop offset="1" stop-color="#833AB4"/>
</linearGradient>
<linearGradient id="paint6_linear_8720_2203" x1="18.46" y1="10.3717" x2="14.5225" y2="6.43417" gradientUnits="userSpaceOnUse">
<stop stop-color="#833AB4" stop-opacity="0"/>
<stop offset="1" stop-color="#833AB4"/>
</linearGradient>
<linearGradient id="paint7_linear_8720_2203" x1="16.7649" y1="7.26797" x2="7.05638" y2="16.9765" gradientUnits="userSpaceOnUse">
<stop stop-color="#833AB4"/>
<stop offset="0.0922" stop-color="#9C3495"/>
<stop offset="0.2927" stop-color="#DC2546"/>
<stop offset="0.392" stop-color="#FD1D1D"/>
<stop offset="0.5589" stop-color="#FC6831"/>
<stop offset="0.6887" stop-color="#FC9B40"/>
<stop offset="0.7521" stop-color="#FCAF45"/>
<stop offset="0.7806" stop-color="#FDB750"/>
<stop offset="0.8656" stop-color="#FECB6A"/>
<stop offset="0.9415" stop-color="#FFD87A"/>
<stop offset="1" stop-color="#FFDC80"/>
</linearGradient>
<clipPath id="clip0_8720_2203">
<rect width="24" height="24" fill="white"/>
</clipPath>
</defs>
</svg>
