<svg width="540" height="536" viewBox="0 0 540 536" fill="none" xmlns="http://www.w3.org/2000/svg">
<path d="M0 188.931C-0.0214092 136.63 21.6698 86.6664 59.895 50.9697C60.021 50.8527 60.138 50.7267 60.264 50.6007C108.438 5.80086 176.442 -10.7259 239.805 6.96774C303.167 24.6614 352.77 74.0294 370.764 137.307C374.04 148.691 376.171 160.374 377.127 172.182C377.198 172.506 377.252 172.833 377.289 173.163C377.487 175.332 377.631 177.609 377.739 179.949H396V161.931C395.975 148.796 405.427 137.558 418.372 135.332C431.317 133.106 443.98 140.542 448.344 152.931H504C523.882 152.931 540 169.048 540 188.931C540 208.813 523.882 224.931 504 224.931H448.344C443.98 237.32 431.317 244.755 418.372 242.529C405.427 240.303 395.975 229.066 396 215.931V197.931H377.766V198.831C377.762 199.362 377.714 199.892 377.622 200.415C376.346 221.226 371.607 241.679 363.6 260.931H454.5C476.857 260.956 494.975 279.073 495 301.431C494.926 323.767 476.837 341.857 454.5 341.931H299.7C235.314 388.693 148.504 390.011 82.728 345.225L71.667 345.441C41.9686 346.107 18.1873 370.275 18 399.981C17.9928 414.472 23.7462 428.371 33.9928 438.618C44.2395 448.865 58.139 454.618 72.63 454.611H315V423.111C314.967 406.605 327.709 392.886 344.172 391.702C360.636 390.517 375.21 402.27 377.541 418.611H495C519.853 418.611 540 438.758 540 463.611C540 488.464 519.853 508.611 495 508.611H377.541C375.21 524.951 360.636 536.704 344.172 535.52C327.709 534.335 314.967 520.617 315 504.111V472.611H72.63C53.3659 472.615 34.8894 464.965 21.2676 451.343C7.64577 437.721 -0.0047763 419.245 0 399.981C0.21408 364.274 26.2414 333.97 61.506 328.368C22.3199 292.597 -0.0041067 241.988 0 188.931V188.931ZM522 188.931C522 178.99 513.941 170.931 504 170.931H450V206.931H504C513.941 206.931 522 198.872 522 188.931ZM414 215.931C414 220.901 418.029 224.931 423 224.931C427.971 224.931 432 220.901 432 215.931V161.931C432 156.96 427.971 152.931 423 152.931C418.029 152.931 414 156.96 414 161.931V215.931ZM522 463.611C522 448.699 509.912 436.611 495 436.611H378V490.611H495C509.912 490.611 522 478.522 522 463.611ZM333 504.111C333 511.567 339.044 517.611 346.5 517.611C353.956 517.611 360 511.567 360 504.111V423.111C360 415.655 353.956 409.611 346.5 409.611C339.044 409.611 333 415.655 333 423.111V504.111ZM23.778 145.479C36.0514 157.398 51.3672 165.711 68.049 169.509C72.7653 170.742 77.5415 171.733 82.359 172.479C86.997 173.204 90.2989 177.372 89.9434 182.052C89.5878 186.733 85.6943 190.355 81 190.371C80.5419 190.371 80.0845 190.334 79.632 190.263C74.1762 189.436 68.7684 188.319 63.432 186.915C47.5301 182.98 32.5997 175.838 19.557 165.927C18.5216 173.551 18.0014 181.236 18 188.931C18.0186 199.848 19.0977 210.739 21.222 221.448C24.8694 226.206 29.1029 230.485 33.822 234.183C71.217 263.964 143.478 269.283 213.66 247.467C278.1 227.559 330.3 188.814 349.884 146.289C350.847 144.255 351.765 141.978 352.656 139.557C346.293 118.346 335.819 98.5936 321.831 81.4257C315.674 94.9135 307.278 107.262 297 117.948C267.851 147.326 231.698 168.794 191.952 180.327C176.682 185.126 161.023 188.583 145.152 190.659C144.77 190.709 144.385 190.733 144 190.731C139.251 190.73 135.32 187.039 135.02 182.299C134.72 177.559 138.155 173.402 142.866 172.803C157.703 170.865 172.341 167.634 186.615 163.146C223.39 152.537 256.861 132.746 283.878 105.636C294.761 94.5366 303.043 81.1583 308.124 66.4677C291.31 50.0137 271.252 37.2442 249.228 28.9737C255.258 61.3737 221.562 98.4177 171.108 114.087C156.695 118.683 141.668 121.068 126.54 121.161C96.84 121.161 63.216 110.307 56.097 81.4347C40.7631 100.158 29.73 122.021 23.778 145.479V145.479ZM74.241 62.3187C72.4346 67.5454 72.2806 73.2015 73.8 78.5187C73.989 79.1111 74.2144 79.6912 74.475 80.2557C90.162 118.623 164.817 96.9777 165.717 96.9327C207.585 83.9367 237.042 54.3897 231.156 30.2067L230.976 29.5227C230.113 26.9165 228.804 24.4801 227.106 22.3227C214.614 19.4063 201.828 17.9327 189 17.9307C146.548 17.8882 105.615 33.7209 74.241 62.3187ZM470.421 317.244C474.658 313.076 477.03 307.373 477 301.431C477 289.004 466.926 278.931 454.5 278.931H355.014C346.024 295.542 334.593 310.711 321.102 323.931L454.5 323.931C460.494 323.952 466.24 321.538 470.421 317.244V317.244ZM343.071 263.118C328.975 277.676 312.975 290.261 295.506 300.531C292.742 302.248 289.267 302.341 286.416 300.772C283.565 299.203 281.783 296.218 281.755 292.964C281.727 289.711 283.458 286.695 286.281 285.078C369.342 235.443 361.188 191.154 358.479 168.078C332.883 209.289 281.079 245.532 218.979 264.738C189.711 273.962 159.225 278.747 128.538 278.931C94.3518 280.127 60.5323 271.558 31.041 254.226C33.1297 259.308 35.4727 264.283 38.061 269.13C38.196 269.373 38.313 269.634 38.43 269.895C43.5352 279.349 49.5196 288.302 56.304 296.634C90.189 326.505 158.49 332.454 226.827 311.331C227.97 311.016 229.068 310.638 230.184 310.26L231.138 309.945C234.193 308.925 237.559 309.613 239.969 311.749C242.379 313.885 243.467 317.144 242.822 320.299C242.177 323.454 239.899 326.025 236.844 327.045L235.944 327.351C234.495 327.837 233.082 328.314 231.876 328.638C204.646 337.172 176.297 341.6 147.762 341.778C133.219 341.824 118.707 340.413 104.445 337.566C145.632 360.989 194.692 366.273 239.923 352.157C285.153 338.042 322.499 305.792 343.053 263.1L343.071 263.118Z" fill="#59C3FF"/>
<path d="M164.844 53.4699L137.844 62.4699C133.122 64.0406 128.021 61.4859 126.45 56.7639C124.879 52.0419 127.434 46.9406 132.156 45.3699L159.156 36.3699C163.878 34.7992 168.979 37.3539 170.55 42.0759C172.121 46.7979 169.566 51.8992 164.844 53.4699Z" fill="#59C3FF"/>
</svg>
